<?xml version="1.0" encoding="UTF-8" standalone="no"?>
<!-- Generator: Adobe Illustrator 24.1.0, SVG Export Plug-In . SVG Version: 6.00 Build 0)  -->

<svg
   version="1.1"
   id="Layer_1"
   x="0px"
   y="0px"
   viewBox="0 0 200 200"
   style="enable-background:new 0 0 200 200;"
   xml:space="preserve"
   sodipodi:docname="android.svg"
   inkscape:version="1.1 (c68e22c387, 2021-05-23)"
   inkscape:export-filename="/home/gz/dev/java/SpendSpentSpent/src/main/app/images/groceries_bag.png"
   inkscape:export-xdpi="491.51999"
   inkscape:export-ydpi="491.51999"
   xmlns:inkscape="http://www.inkscape.org/namespaces/inkscape"
   xmlns:sodipodi="http://sodipodi.sourceforge.net/DTD/sodipodi-0.dtd"
   xmlns="http://www.w3.org/2000/svg"
   xmlns:svg="http://www.w3.org/2000/svg"><defs
   id="defs2027" /><sodipodi:namedview
   id="namedview2025"
   pagecolor="#2196f3"
   bordercolor="#666666"
   borderopacity="1.0"
   inkscape:pageshadow="2"
   inkscape:pageopacity="0"
   inkscape:pagecheckerboard="true"
   showgrid="false"
   inkscape:zoom="4.365"
   inkscape:cx="79.839633"
   inkscape:cy="99.885452"
   inkscape:window-width="5120"
   inkscape:window-height="1371"
   inkscape:window-x="0"
   inkscape:window-y="0"
   inkscape:window-maximized="1"
   inkscape:current-layer="layer1" />
<style
   type="text/css"
   id="style1996">
	.st0{fill:#FFFFFF;}
	.st1{fill:#428CCB;}
	.st2{fill:#FFFFFF;stroke:#FFFFFF;stroke-miterlimit:10;}
	.st3{fill:none;stroke:#F6F6F6;stroke-miterlimit:10;}
	.st4{fill:none;stroke:#FFFFFF;stroke-width:5;stroke-miterlimit:10;}
	.st5{fill:none;stroke:#FFFFFF;stroke-width:3;stroke-miterlimit:10;}
	.st6{fill:#F6F6F6;}
	.st7{fill:none;stroke:#428CCB;stroke-width:2;stroke-miterlimit:10;}
	.st8{fill:#F49823;}
	.st9{fill:none;stroke:#428CCB;stroke-miterlimit:10;}
	.st10{fill:none;stroke:#FFFFFF;stroke-width:6;stroke-miterlimit:10;}
	.st11{fill:none;}
	.st12{fill:#FEFEFE;}
	.st13{fill:#656565;}
	.st14{fill:#F8B81E;}
	.st15{fill:none;stroke:#000000;stroke-miterlimit:10;}
	.st16{fill:none;stroke:#FFFFFF;stroke-miterlimit:10;}
	.st17{fill:none;stroke:#FFFFFF;stroke-width:2;stroke-miterlimit:10;}
	.st18{fill:none;stroke:#000000;stroke-width:3;stroke-miterlimit:10;}
</style>

<g
   inkscape:groupmode="layer"
   id="layer1"
   inkscape:label="Layer 1"><g
     id="g2022"
     transform="matrix(0.52148941,0,0,0.52148941,47.85097,47.85269)">
	<path
   class="st0"
   d="m 67.09,74.31 9.89,17.89 c 0.26,0.48 0.4,1.01 0.4,1.56 v 75.18 c 0,0 -0.18,3.93 -1.55,5.74 -0.1,0.13 -0.01,0.31 0.16,0.31 h 34.24 c 0.2,0 0.28,-0.25 0.11,-0.36 -2.21,-1.52 -10.24,-8.01 -12.2,-23.64 -0.02,-0.17 -0.23,-0.24 -0.34,-0.11 -0.77,0.87 -3.1,3.03 -7.15,2.77 0,0 -2.27,0.19 -4.96,-1.82 -2.76,-2.06 -4.31,-5.37 -4.31,-8.82 v -38.83 c 0,-5.3 4.29,-9.59 9.59,-9.59 v 0 c 5.3,0 9.59,4.29 9.59,9.59 v 28.68 c 0,0.14 0.14,0.24 0.27,0.18 1.02,-0.44 4.83,-1.76 11,0.05 0.13,0.04 0.26,-0.06 0.26,-0.19 v -29.05 c 0,-5.3 4.29,-9.59 9.59,-9.59 h 0.43 c 5.3,0 9.59,4.29 9.59,9.59 v 14.21 c 0,0.2 0.25,0.28 0.36,0.12 1.12,-1.63 4.68,-6.29 8.69,-6.02 3.98,0.27 7.02,4.02 7.98,5.35 0.11,0.15 0.35,0.08 0.36,-0.11 l 2.87,-43.2 c 0,-0.07 -0.02,-0.13 -0.07,-0.17 -0.46,-0.36 -2.98,-1.98 -8.06,0.81 -1.37,0.75 -2.94,1.12 -4.5,0.98 -0.14,-0.01 -0.28,-0.03 -0.42,-0.05 -0.91,-0.13 -1.78,-0.49 -2.56,-0.98 -0.85,-0.53 -2.76,-1.43 -5.93,-1.57 0,0 -2.03,-0.41 -4.88,0.84 -0.56,0.24 -1.07,0.58 -1.56,0.95 -0.82,0.62 -2.96,1.62 -6.88,-0.44 0,0 -3.02,-1.9 -6.78,-1.41 -3.75,0.49 -4.95,1.5 -4.95,1.5 0,0 -2.66,1.92 -6.68,0.37 0,0 -3.66,-1.98 -6.68,-1.95 -3.02,0.03 -5.49,1.4 -5.49,1.4 0,0 -4.03,2.38 -8.33,0.18 0,0 -2.2,-1.88 -6.41,-1.58 0,0 -2.45,0.15 -4.57,0.93 -0.13,0.06 -0.18,0.2 -0.12,0.3 z"
   id="path1998" />
	<path
   class="st0"
   d="m 90.98,149.1 v 0 c -2.84,0 -5.13,-2.3 -5.13,-5.13 v -39.12 c 0,-2.84 2.3,-5.13 5.13,-5.13 v 0 c 2.84,0 5.13,2.3 5.13,5.13 v 39.12 c 0.01,2.84 -2.29,5.13 -5.13,5.13 z"
   id="path2000" />
	<path
   class="st0"
   d="m 126.97,127.22 v -22.74 c 0,-2.84 -2.3,-5.13 -5.13,-5.13 v 0 c -2.84,0 -5.13,2.3 -5.13,5.13 v 29.21 c 0,0.19 0.14,0.35 0.33,0.38 0.87,0.12 3.25,0.54 4.63,1.59 0.21,0.16 0.52,0.05 0.6,-0.2 0.48,-1.52 1.98,-5.66 4.58,-7.95 0.07,-0.08 0.12,-0.19 0.12,-0.29 z"
   id="path2002" />
	<path
   class="st0"
   d="m 174.82,140.43 c -0.05,-0.51 -0.48,-0.89 -0.99,-0.9 -2.42,-0.01 -9.52,0.21 -17.01,2.75 -0.24,-3.59 -1.46,-7.05 -3.38,-10.1 -2.58,-4.12 -7.61,-11.68 -11.81,-15.13 -0.4,-0.33 -0.97,-0.3 -1.34,0.07 -2.64,2.61 -12.65,13.33 -13.87,26.65 -9.12,-4.5 -19.08,-4.83 -22.04,-4.82 -0.51,0 -0.94,0.39 -0.99,0.9 -0.53,5.4 1.25,14.32 2.33,19.05 0.81,3.57 2.42,6.92 4.85,9.66 4,4.52 8.95,6.27 13.31,6.8 5.78,0.7 11.39,-2.24 14.14,-7.37 v 0 c 0.41,-0.76 0.74,-1.53 0.99,-2.28 0.27,0.95 0.65,1.91 1.17,2.87 2.75,5.13 8.36,8.07 14.14,7.37 4.36,-0.53 9.32,-2.28 13.31,-6.8 2.42,-2.74 4.03,-6.1 4.85,-9.66 1.1,-4.74 2.88,-13.66 2.34,-19.06 z m -35.25,-1.73 c 0.25,-0.76 1.1,-1.16 1.85,-0.87 v 0 c 0.71,0.27 1.07,1.05 0.83,1.77 -1.74,5.26 -1.41,9.62 -0.65,12.67 -0.77,1.04 -1.41,2.16 -1.91,3.33 -1.3,-3.36 -2.63,-9.34 -0.12,-16.9 z m -8,30.57 c -0.7,0.13 -1.38,-0.27 -1.6,-0.94 -0.82,-2.47 -3.47,-8.25 -11.07,-12.08 -0.68,-0.34 -0.97,-1.15 -0.66,-1.84 v 0 c 0.33,-0.74 1.21,-1.06 1.92,-0.7 8.46,4.25 11.51,10.77 12.5,13.73 0.27,0.81 -0.24,1.67 -1.09,1.83 z m 27.76,-12.43 c -7.6,3.83 -10.25,9.61 -11.07,12.08 -0.22,0.67 -0.91,1.07 -1.6,0.94 -0.84,-0.16 -1.36,-1.02 -1.09,-1.83 0.99,-2.96 4.03,-9.48 12.5,-13.73 0.72,-0.36 1.6,-0.04 1.92,0.7 v 0 c 0.31,0.69 0.02,1.5 -0.66,1.84 z"
   id="path2004" />
	<g
   id="g2008">
		<path
   class="st0"
   d="m 97.21,68.85 -2.18,-0.91 c -0.24,-0.1 -0.36,-0.38 -0.26,-0.62 2.16,-5.07 20.5,-46.63 39.36,-43.16 19.01,3.5 14.11,39.26 13.37,44.04 -0.04,0.26 -0.29,0.44 -0.55,0.39 l -2.33,-0.39 c -0.26,-0.04 -0.43,-0.28 -0.39,-0.54 0.64,-4.31 5.04,-37.34 -10.7,-40.24 -13.99,-2.58 -30.33,28.43 -35.71,41.18 -0.09,0.24 -0.37,0.35 -0.61,0.25 z"
   id="path2006" />
	</g>
	<path
   class="st0"
   d="m 109.48,68.2 c 0,0 5.36,-0.77 7.2,0.87 0,0 2.41,1.41 5.23,1.31 2.82,-0.1 4.36,-1.64 4.36,-1.64 0,0 -8.31,-5.87 -16.79,-0.54 z"
   id="path2010" />
	<path
   class="st0"
   d="m 129.3,58.83 -8.03,-2.55 c -3.71,-1.18 -5.76,-5.14 -4.58,-8.84 v 0 c 1.18,-3.71 5.14,-5.76 8.84,-4.58 l 8.03,2.55 c 3.71,1.18 5.76,5.14 4.58,8.84 v 0 c -1.17,3.71 -5.13,5.76 -8.84,4.58 z"
   id="path2012" />
	<path
   class="st0"
   d="m 54.04,49.78 c 1.07,-2.5 5.92,-12.47 16.47,-15.5 0.1,-0.03 0.2,-0.02 0.29,0.02 0.75,0.35 4.13,2.5 3.92,13.16 0,0.03 0,0.06 0.01,0.09 0.12,0.49 1.33,4.67 7.23,4.59 6.17,-0.08 6.74,-4.98 6.76,-5.14 0,-0.01 0,0 0,-0.01 0.01,-0.18 0.47,-8.79 -1.33,-12.1 -0.16,-0.3 0.05,-0.66 0.38,-0.63 2.11,0.18 7.83,1.28 13.59,7.63 0.12,0.14 0.15,0.34 0.05,0.5 -1.19,1.95 -8.74,14.53 -12.44,25.72 -0.06,0.17 -0.2,0.28 -0.38,0.29 -0.61,0.02 -2.09,0.15 -3.25,1 -0.87,0.64 -1.83,1.17 -2.9,1.33 -1.32,0.19 -3.06,0.07 -4.76,-1.16 0,0 -1.42,-1.4 -5.09,-1.39 -2.36,0 -4.24,0.68 -5.29,1.16 -0.33,0.15 -0.67,-0.15 -0.57,-0.49 0.6,-2 1.63,-6.93 -0.16,-12.94 0,-0.01 -0.01,-0.02 -0.01,-0.03 -0.1,-0.27 -1.86,-5.01 -6.11,-5.5 -0.02,0 -0.04,0 -0.06,0 L 54.4,50.36 c -0.27,0 -0.48,-0.3 -0.36,-0.58 z"
   id="path2014" />
	<g
   id="g2018">
		<path
   class="st0"
   d="m 81.42,46.04 v 0 C 80.53,45.97 79.87,45.21 79.9,44.32 80.08,38.9 78.76,34.68 75.98,31.77 72.75,28.38 68.23,27.54 65.94,27.33 65.11,27.25 64.46,26.58 64.42,25.74 v -0.01 c -0.04,-0.99 0.8,-1.8 1.79,-1.72 2.79,0.24 8.14,1.26 12.14,5.43 3.44,3.59 5.07,8.63 4.86,15.01 -0.03,0.95 -0.86,1.67 -1.79,1.59 z"
   id="path2016" />
	</g>
	<path
   class="st0"
   d="m 71.29,92.69 c 0.48,0.96 0.74,2.02 0.74,3.1 v 74.47 c 0,2.62 -2.12,4.74 -4.74,4.74 H 29.82 c -2.62,0 -4.74,-2.12 -4.74,-4.74 V 95.5 c 0,-1.04 0.24,-2.07 0.69,-3.01 L 37.15,69.06 h -0.08 c -1.61,0 -2.92,-1.31 -2.92,-2.92 v -6.92 c 0,-2.11 1.71,-3.81 3.81,-3.81 H 58.5 c 2.11,0 3.81,1.71 3.81,3.81 v 6.92 c 0,1.61 -1.31,2.92 -2.92,2.92 v 0 z M 57.74,63.87 v -3.1 c 0,-0.47 -0.38,-0.86 -0.86,-0.86 h -16.9 c -0.47,0 -0.86,0.38 -0.86,0.86 v 3.1 c 0,0.47 0.38,0.86 0.86,0.86 h 16.91 c 0.47,0 0.85,-0.39 0.85,-0.86 z m -9.39,46.45 c -7.67,0 -13.9,6.22 -13.9,13.9 0,7.67 6.22,13.9 13.9,13.9 7.68,0 13.9,-6.22 13.9,-13.9 0,-7.68 -6.22,-13.9 -13.9,-13.9 z"
   id="path2020" />
</g></g></svg>
