<?xml version="1.0" encoding="UTF-8" standalone="no"?>
<!-- Generator: Adobe Illustrator 24.1.0, SVG Export Plug-In . SVG Version: 6.00 Build 0)  -->

<svg
   version="1.1"
   id="Layer_1"
   x="0px"
   y="0px"
   viewBox="0 0 200 200"
   style="enable-background:new 0 0 200 200;"
   xml:space="preserve"
   sodipodi:docname="groceries_bag.svg"
   inkscape:version="1.1 (c68e22c387, 2021-05-23)"
   inkscape:export-filename="/home/gz/dev/java/SpendSpentSpent/src/main/app/images/groceries_bag.png"
   inkscape:export-xdpi="491.51999"
   inkscape:export-ydpi="491.51999"
   xmlns:inkscape="http://www.inkscape.org/namespaces/inkscape"
   xmlns:sodipodi="http://sodipodi.sourceforge.net/DTD/sodipodi-0.dtd"
   xmlns="http://www.w3.org/2000/svg"
   xmlns:svg="http://www.w3.org/2000/svg"><defs
   id="defs2027" /><sodipodi:namedview
   id="namedview2025"
   pagecolor="#2196f3"
   bordercolor="#666666"
   borderopacity="1.0"
   inkscape:pageshadow="2"
   inkscape:pageopacity="0"
   inkscape:pagecheckerboard="true"
   showgrid="false"
   inkscape:zoom="4.365"
   inkscape:cx="79.839633"
   inkscape:cy="99.885452"
   inkscape:window-width="2560"
   inkscape:window-height="1371"
   inkscape:window-x="1280"
   inkscape:window-y="0"
   inkscape:window-maximized="0"
   inkscape:current-layer="layer2" />
<style
   type="text/css"
   id="style1996">
	.st0{fill:#FFFFFF;}
	.st1{fill:#428CCB;}
	.st2{fill:#FFFFFF;stroke:#FFFFFF;stroke-miterlimit:10;}
	.st3{fill:none;stroke:#F6F6F6;stroke-miterlimit:10;}
	.st4{fill:none;stroke:#FFFFFF;stroke-width:5;stroke-miterlimit:10;}
	.st5{fill:none;stroke:#FFFFFF;stroke-width:3;stroke-miterlimit:10;}
	.st6{fill:#F6F6F6;}
	.st7{fill:none;stroke:#428CCB;stroke-width:2;stroke-miterlimit:10;}
	.st8{fill:#F49823;}
	.st9{fill:none;stroke:#428CCB;stroke-miterlimit:10;}
	.st10{fill:none;stroke:#FFFFFF;stroke-width:6;stroke-miterlimit:10;}
	.st11{fill:none;}
	.st12{fill:#FEFEFE;}
	.st13{fill:#656565;}
	.st14{fill:#F8B81E;}
	.st15{fill:none;stroke:#000000;stroke-miterlimit:10;}
	.st16{fill:none;stroke:#FFFFFF;stroke-miterlimit:10;}
	.st17{fill:none;stroke:#FFFFFF;stroke-width:2;stroke-miterlimit:10;}
	.st18{fill:none;stroke:#000000;stroke-width:3;stroke-miterlimit:10;}
</style>

<g
   inkscape:groupmode="layer"
   id="layer2"
   inkscape:label="background"><rect
     style="fill:#2196f3"
     id="rect915"
     width="206.79124"
     height="203.66693"
     x="-1.3570639"
     y="-0.32219991" /></g><g
   inkscape:groupmode="layer"
   id="layer1"
   inkscape:label="Layer 1"><g
     id="g2022"
     style="enable-background:new 0 0 200 200">
	<path
   class="st0"
   d="M67.09,74.31l9.89,17.89c0.26,0.48,0.4,1.01,0.4,1.56v75.18c0,0-0.18,3.93-1.55,5.74   c-0.1,0.13-0.01,0.31,0.16,0.31h34.24c0.2,0,0.28-0.25,0.11-0.36c-2.21-1.52-10.24-8.01-12.2-23.64c-0.02-0.17-0.23-0.24-0.34-0.11   c-0.77,0.87-3.1,3.03-7.15,2.77c0,0-2.27,0.19-4.96-1.82c-2.76-2.06-4.31-5.37-4.31-8.82v-38.83c0-5.3,4.29-9.59,9.59-9.59h0   c5.3,0,9.59,4.29,9.59,9.59v28.68c0,0.14,0.14,0.24,0.27,0.18c1.02-0.44,4.83-1.76,11,0.05c0.13,0.04,0.26-0.06,0.26-0.19l0-29.05   c0-5.3,4.29-9.59,9.59-9.59h0.43c5.3,0,9.59,4.29,9.59,9.59v14.21c0,0.2,0.25,0.28,0.36,0.12c1.12-1.63,4.68-6.29,8.69-6.02   c3.98,0.27,7.02,4.02,7.98,5.35c0.11,0.15,0.35,0.08,0.36-0.11l2.87-43.2c0-0.07-0.02-0.13-0.07-0.17   c-0.46-0.36-2.98-1.98-8.06,0.81c-1.37,0.75-2.94,1.12-4.5,0.98c-0.14-0.01-0.28-0.03-0.42-0.05c-0.91-0.13-1.78-0.49-2.56-0.98   c-0.85-0.53-2.76-1.43-5.93-1.57c0,0-2.03-0.41-4.88,0.84c-0.56,0.24-1.07,0.58-1.56,0.95c-0.82,0.62-2.96,1.62-6.88-0.44   c0,0-3.02-1.9-6.78-1.41c-3.75,0.49-4.95,1.5-4.95,1.5s-2.66,1.92-6.68,0.37c0,0-3.66-1.98-6.68-1.95c-3.02,0.03-5.49,1.4-5.49,1.4   s-4.03,2.38-8.33,0.18c0,0-2.2-1.88-6.41-1.58c0,0-2.45,0.15-4.57,0.93C67.08,74.07,67.03,74.21,67.09,74.31z"
   id="path1998" />
	<path
   class="st0"
   d="M90.98,149.1L90.98,149.1c-2.84,0-5.13-2.3-5.13-5.13v-39.12c0-2.84,2.3-5.13,5.13-5.13h0   c2.84,0,5.13,2.3,5.13,5.13v39.12C96.12,146.81,93.82,149.1,90.98,149.1z"
   id="path2000" />
	<path
   class="st0"
   d="M126.97,127.22v-22.74c0-2.84-2.3-5.13-5.13-5.13h0c-2.84,0-5.13,2.3-5.13,5.13v29.21   c0,0.19,0.14,0.35,0.33,0.38c0.87,0.12,3.25,0.54,4.63,1.59c0.21,0.16,0.52,0.05,0.6-0.2c0.48-1.52,1.98-5.66,4.58-7.95   C126.92,127.43,126.97,127.32,126.97,127.22z"
   id="path2002" />
	<path
   class="st0"
   d="M174.82,140.43c-0.05-0.51-0.48-0.89-0.99-0.9c-2.42-0.01-9.52,0.21-17.01,2.75   c-0.24-3.59-1.46-7.05-3.38-10.1c-2.58-4.12-7.61-11.68-11.81-15.13c-0.4-0.33-0.97-0.3-1.34,0.07   c-2.64,2.61-12.65,13.33-13.87,26.65c-9.12-4.5-19.08-4.83-22.04-4.82c-0.51,0-0.94,0.39-0.99,0.9c-0.53,5.4,1.25,14.32,2.33,19.05   c0.81,3.57,2.42,6.92,4.85,9.66c4,4.52,8.95,6.27,13.31,6.8c5.78,0.7,11.39-2.24,14.14-7.37l0,0c0.41-0.76,0.74-1.53,0.99-2.28   c0.27,0.95,0.65,1.91,1.17,2.87c2.75,5.13,8.36,8.07,14.14,7.37c4.36-0.53,9.32-2.28,13.31-6.8c2.42-2.74,4.03-6.1,4.85-9.66   C173.58,154.75,175.36,145.83,174.82,140.43z M139.57,138.7c0.25-0.76,1.1-1.16,1.85-0.87l0,0c0.71,0.27,1.07,1.05,0.83,1.77   c-1.74,5.26-1.41,9.62-0.65,12.67c-0.77,1.04-1.41,2.16-1.91,3.33C138.39,152.24,137.06,146.26,139.57,138.7z M131.57,169.27   c-0.7,0.13-1.38-0.27-1.6-0.94c-0.82-2.47-3.47-8.25-11.07-12.08c-0.68-0.34-0.97-1.15-0.66-1.84l0,0c0.33-0.74,1.21-1.06,1.92-0.7   c8.46,4.25,11.51,10.77,12.5,13.73C132.93,168.25,132.42,169.11,131.57,169.27z M159.33,156.84c-7.6,3.83-10.25,9.61-11.07,12.08   c-0.22,0.67-0.91,1.07-1.6,0.94c-0.84-0.16-1.36-1.02-1.09-1.83c0.99-2.96,4.03-9.48,12.5-13.73c0.72-0.36,1.6-0.04,1.92,0.7l0,0   C160.3,155.69,160.01,156.5,159.33,156.84z"
   id="path2004" />
	<g
   id="g2008">
		<path
   class="st0"
   d="M97.21,68.85l-2.18-0.91c-0.24-0.1-0.36-0.38-0.26-0.62c2.16-5.07,20.5-46.63,39.36-43.16    c19.01,3.5,14.11,39.26,13.37,44.04c-0.04,0.26-0.29,0.44-0.55,0.39l-2.33-0.39c-0.26-0.04-0.43-0.28-0.39-0.54    c0.64-4.31,5.04-37.34-10.7-40.24c-13.99-2.58-30.33,28.43-35.71,41.18C97.73,68.84,97.45,68.95,97.21,68.85z"
   id="path2006" />
	</g>
	<path
   class="st0"
   d="M109.48,68.2c0,0,5.36-0.77,7.2,0.87c0,0,2.41,1.41,5.23,1.31s4.36-1.64,4.36-1.64S117.96,62.87,109.48,68.2z"
   id="path2010" />
	<path
   class="st0"
   d="M129.3,58.83l-8.03-2.55c-3.71-1.18-5.76-5.14-4.58-8.84l0,0c1.18-3.71,5.14-5.76,8.84-4.58l8.03,2.55   c3.71,1.18,5.76,5.14,4.58,8.84l0,0C136.97,57.96,133.01,60.01,129.3,58.83z"
   id="path2012" />
	<path
   class="st0"
   d="M54.04,49.78c1.07-2.5,5.92-12.47,16.47-15.5c0.1-0.03,0.2-0.02,0.29,0.02c0.75,0.35,4.13,2.5,3.92,13.16   c0,0.03,0,0.06,0.01,0.09c0.12,0.49,1.33,4.67,7.23,4.59c6.17-0.08,6.74-4.98,6.76-5.14c0-0.01,0,0,0-0.01   c0.01-0.18,0.47-8.79-1.33-12.1c-0.16-0.3,0.05-0.66,0.38-0.63c2.11,0.18,7.83,1.28,13.59,7.63c0.12,0.14,0.15,0.34,0.05,0.5   c-1.19,1.95-8.74,14.53-12.44,25.72c-0.06,0.17-0.2,0.28-0.38,0.29c-0.61,0.02-2.09,0.15-3.25,1c-0.87,0.64-1.83,1.17-2.9,1.33   c-1.32,0.19-3.06,0.07-4.76-1.16c0,0-1.42-1.4-5.09-1.39c-2.36,0-4.24,0.68-5.29,1.16c-0.33,0.15-0.67-0.15-0.57-0.49   c0.6-2,1.63-6.93-0.16-12.94c0-0.01-0.01-0.02-0.01-0.03c-0.1-0.27-1.86-5.01-6.11-5.5c-0.02,0-0.04,0-0.06,0l-5.99-0.02   C54.13,50.36,53.92,50.06,54.04,49.78z"
   id="path2014" />
	<g
   id="g2018">
		<path
   class="st0"
   d="M81.42,46.04L81.42,46.04c-0.89-0.07-1.55-0.83-1.52-1.72c0.18-5.42-1.14-9.64-3.92-12.55    c-3.23-3.39-7.75-4.23-10.04-4.44c-0.83-0.08-1.48-0.75-1.52-1.59l0-0.01c-0.04-0.99,0.8-1.8,1.79-1.72    c2.79,0.24,8.14,1.26,12.14,5.43c3.44,3.59,5.07,8.63,4.86,15.01C83.18,45.4,82.35,46.12,81.42,46.04z"
   id="path2016" />
	</g>
	<path
   class="st0"
   d="M71.29,92.69c0.48,0.96,0.74,2.02,0.74,3.1v74.47c0,2.62-2.12,4.74-4.74,4.74H29.82   c-2.62,0-4.74-2.12-4.74-4.74V95.5c0-1.04,0.24-2.07,0.69-3.01l11.38-23.43h-0.08c-1.61,0-2.92-1.31-2.92-2.92v-6.92   c0-2.11,1.71-3.81,3.81-3.81H58.5c2.11,0,3.81,1.71,3.81,3.81v6.92c0,1.61-1.31,2.92-2.92,2.92h0L71.29,92.69z M57.74,63.87v-3.1   c0-0.47-0.38-0.86-0.86-0.86H39.98c-0.47,0-0.86,0.38-0.86,0.86v3.1c0,0.47,0.38,0.86,0.86,0.86h16.91   C57.36,64.73,57.74,64.34,57.74,63.87z M48.35,110.32c-7.67,0-13.9,6.22-13.9,13.9c0,7.67,6.22,13.9,13.9,13.9s13.9-6.22,13.9-13.9   C62.25,116.54,56.03,110.32,48.35,110.32z"
   id="path2020" />
</g></g></svg>
