<svg id="Layer_1" data-name="Layer 1" xmlns="http://www.w3.org/2000/svg" viewBox="0 0 200 200"><defs><style>.cls-1{fill:#fff;}</style></defs><path class="cls-1" d="M34.54,141.13c-.72-.87-2-2.62-1.81-4.07a.68.68,0,0,1,1-.61A19.1,19.1,0,0,1,38.17,139s31.65,20.59,60.9,19.63c0,0,26.33,1.68,49.62-10.71.77-.4,1.52-.83,2.26-1.29.91-.57,3.16-1.71,4.23,0,0,0,2.19,2.45-1.69,5.34-.3.22-.58.46-.86.7-3.27,2.85-22.41,18.22-54.45,18.1-34.11-.13-59.08-23.38-62.83-28.56Q35,141.64,34.54,141.13Z"/><path class="cls-1" d="M142,140.6a.64.64,0,0,0,.61,1c3.62-.25,16.12-1,17.16.4,1.22,1.67,1.09,6-2.83,16.39,0,0-1.35,4.56,2.83.39,4-4,7.93-9.49,7.45-20.09a2.88,2.88,0,0,0-2-2.6c-2-.62-5.8-1.26-12.11-.61a20.62,20.62,0,0,0-7.55,2.25A9,9,0,0,0,142,140.6Z"/><path class="cls-1" d="M60.49,62.4a1.91,1.91,0,0,1-1.55-1.58c-1.35-8.45,5.86-17.2,5.86-17.2C77.68,26.52,103.92,29,110.59,30c1.12.16,2.23.28,3.35.4A27.56,27.56,0,0,1,130.29,38a29.45,29.45,0,0,1,8.82,21.3L139,104.43a3.35,3.35,0,0,0,.66,2,77.11,77.11,0,0,1,7.22,12.39,3.18,3.18,0,0,1-.56,3.51c-4,4.25-13.32,11.88-13.32,11.88-4.85,3.29-7.13.57-7.13.57-5-3-9.84-11.84-9.84-11.84a39.21,39.21,0,0,1-29,13.27s-12.27,1-22.82-6.42-8.56-23.4-8.56-23.4-.43-15.83,11.41-25.53,43.8-11.13,43.8-11.13V60.31a10.53,10.53,0,0,0-2.71-7.16c-1.84-2-4.5-3.25-10.27-3.25-9,0-12.89,5.79-14,11.56C83.06,66,65.39,63.25,60.49,62.4Zm23.66,38c0,.49-.09,1-.15,1.46-1.44,10.57,6.37,13.34,6.37,13.34,8.89,3.85,14.35-1.55,17.47-7.2a29.11,29.11,0,0,0,3.54-14.13V85.64C87.18,85.17,84.46,97.32,84.15,100.36Z"/></svg>