<?xml version="1.0" encoding="utf-8"?>
<!-- Generator: Adobe Illustrator 24.1.0, SVG Export Plug-In . SVG Version: 6.00 Build 0)  -->
<svg version="1.1" id="Layer_1" xmlns="http://www.w3.org/2000/svg" xmlns:xlink="http://www.w3.org/1999/xlink" x="0px" y="0px"
	 viewBox="0 0 200 200" style="enable-background:new 0 0 200 200;" xml:space="preserve">
<style type="text/css">
	.st0{fill:#FFFFFF;}
	.st1{fill:#428CCB;}
	.st2{fill:#FFFFFF;stroke:#FFFFFF;stroke-miterlimit:10;}
	.st3{fill:none;stroke:#F6F6F6;stroke-miterlimit:10;}
	.st4{fill:none;stroke:#FFFFFF;stroke-width:5;stroke-miterlimit:10;}
	.st5{fill:none;stroke:#FFFFFF;stroke-width:3;stroke-miterlimit:10;}
	.st6{fill:#F6F6F6;}
	.st7{fill:none;stroke:#428CCB;stroke-width:2;stroke-miterlimit:10;}
	.st8{fill:#F49823;}
	.st9{fill:none;stroke:#428CCB;stroke-miterlimit:10;}
	.st10{fill:none;stroke:#FFFFFF;stroke-width:6;stroke-miterlimit:10;}
	.st11{fill:none;}
	.st12{fill:#FEFEFE;}
	.st13{fill:#656565;}
	.st14{fill:#F8B81E;}
	.st15{fill:none;stroke:#000000;stroke-miterlimit:10;}
	.st16{clip-path:url(#SVGID_2_);}
	.st17{clip-path:url(#SVGID_4_);}
	.st18{fill:none;stroke:#FFFFFF;stroke-miterlimit:10;}
	.st19{fill:none;stroke:#FFFFFF;stroke-width:2;stroke-miterlimit:10;}
</style>
<g>
	<path class="st0" d="M79.64,177.19h-36.5v-68.95c0-2.23,1.8-4.03,4.03-4.03h28.44c2.23,0,4.03,1.8,4.03,4.03V177.19z M68.1,117.47
		H54.67v18.76H68.1V117.47z M68.1,144.57H54.67v18.76H68.1V144.57z"/>
	<path class="st0" d="M156.86,177.19H87.63V28.54c0-3.17,2.57-5.73,5.73-5.73h57.77c3.17,0,5.73,2.57,5.73,5.73V177.19z
		 M113.79,72.01h-13.42v18.76h13.42V72.01z M143.56,72.01h-13.42v18.76h13.42V72.01z M113.79,41.69h-13.42v18.76h13.42V41.69z
		 M143.56,41.69h-13.42v18.76h13.42V41.69z M113.79,100.12h-13.42v18.76h13.42V100.12z M143.56,100.12h-13.42v18.76h13.42V100.12z
		 M113.79,131.09h-13.42v18.76h13.42V131.09z M143.56,131.09h-13.42v18.76h13.42V131.09z M128.96,158.44h-13.42v18.76h13.42V158.44z
		"/>
</g>
</svg>
