<svg id="Layer_1" data-name="Layer 1" xmlns="http://www.w3.org/2000/svg" viewBox="0 0 200 200"><defs><style>.cls-1{fill:#fff;}</style></defs><path class="cls-1" d="M100.24,61.9S97.9,33.76,128.13,29.59C128.13,29.59,131,59,100.24,61.9Z"/><path class="cls-1" d="M106.49,67.76C116.58,64,139,58.25,152.22,75.51a2.33,2.33,0,0,1-.46,3.3c-4.6,3.39-15.67,13.61-12.19,31.45l0,.18c.1,1.06,1.63,13.39,16.22,21.65a2.35,2.35,0,0,1,1,2.91c-2.53,6.31-11.21,26.07-23.41,32.69a17,17,0,0,1-10.59,1.79,37.9,37.9,0,0,1-10-3,24.46,24.46,0,0,0-7.49-2.05,22.4,22.4,0,0,0-10.1,1.06c-7.53,2.81-18.31,8.42-27.11-.25,0,0-32.39-30.09-23.58-71.59A40.06,40.06,0,0,1,56.22,72.49a31.76,31.76,0,0,1,18.29-8.66,27.17,27.17,0,0,1,15.14,2.94l.46.23A20.7,20.7,0,0,0,106.49,67.76Z"/></svg>