<svg id="Layer_1" data-name="Layer 1" xmlns="http://www.w3.org/2000/svg" viewBox="0 0 200 200">
    <defs>
        <style>.cls-1{fill:#428ccb;}.cls-2{font-size:27.05px;fill:#1d1d1b;font-family:AdobeArabic-Regular, Adobe
            Arabic;}.cls-3{fill:#fff;}
        </style>
    </defs>
    <text class="cls-2" transform="translate(89.19 -9.1)">books</text>
    <path class="cls-3"
          d="M172.31,47.55h-1.74v-2a5.36,5.36,0,0,0-4.06-5.2c-23.29-5.79-51-1.71-61.59.25a5.35,5.35,0,0,0-4.38,5.26v-.31a5.37,5.37,0,0,0-4.07-5.2c-23.29-5.79-51-1.71-61.59.25a5.35,5.35,0,0,0-4.38,5.26v1.72H27.69a8.9,8.9,0,0,0-9,8.73v90a8.72,8.72,0,0,0,3,6.56,9.37,9.37,0,0,0,7.41,2.19c13.22-1.82,45.32-5.32,59.7,1,1.12,1.42,5.34,6.25,11.49,6.59.23,0,.46,0,.69,0,4.24,0,8.38-2.17,12.31-6.47,3.3-.87,25-6,57.61-1.27a9.26,9.26,0,0,0,7.42-2.14,8.77,8.77,0,0,0,3-6.6V56.28A8.9,8.9,0,0,0,172.31,47.55ZM178,146.18a5.33,5.33,0,0,1-1.9,4.09,6,6,0,0,1-4.77,1.38c-36.06-5.24-58.53,1.2-59.47,1.48l-.45.13-.32.36c-3.53,4-7.11,5.91-10.65,5.72-5.45-.29-9.23-5.53-9.27-5.58L91,153.4l-.41-.19c-6.66-3.07-16.74-4.1-27.33-4.1a267,267,0,0,0-34.58,2.66,6,6,0,0,1-4.78-1.4A5.31,5.31,0,0,1,22,146.31v-90a5.58,5.58,0,0,1,5.72-5.42H30.5v90.6a5.35,5.35,0,0,0,6.28,5.28,162,162,0,0,1,57.42-.14,5.35,5.35,0,0,0,6.34-5.26v.12a5.35,5.35,0,0,0,6.28,5.28,162,162,0,0,1,57.42-.14,5.35,5.35,0,0,0,6.33-5.26V50.86h1.74A5.58,5.58,0,0,1,178,56.28Z"/>
</svg>