<?xml version="1.0" encoding="utf-8"?>
<!-- Generator: Adobe Illustrator 24.1.0, SVG Export Plug-In . SVG Version: 6.00 Build 0)  -->
<svg version="1.1" id="Layer_1" xmlns="http://www.w3.org/2000/svg" xmlns:xlink="http://www.w3.org/1999/xlink" x="0px" y="0px"
	 viewBox="0 0 200 200" style="enable-background:new 0 0 200 200;" xml:space="preserve">
<style type="text/css">
	.st0{fill:#FFFFFF;}
</style>
<g>
	<path class="st0" d="M167.03,94.95h-5.35V65.06h5.35c3,0,5.42,2.43,5.42,5.42v19.04C172.46,92.52,170.03,94.95,167.03,94.95z"/>
	<path class="st0" d="M34.14,94.95h5.35V65.06h-5.35c-3,0-5.42,2.43-5.42,5.42v19.04C28.71,92.52,31.14,94.95,34.14,94.95z"/>
	<path class="st0" d="M157.68,60.86v78.16c0,5.84-4.66,10.59-10.51,10.85v9.78c0,5.64-4.62,10.21-10.33,10.21h-8
		c-5.7,0-10.33-4.57-10.33-10.21v-9.76H82.73v9.76c0,5.64-4.62,10.21-10.33,10.21h-8c-5.7,0-10.33-4.57-10.33-10.21v-9.8
		c-5.69-0.42-10.17-5.11-10.17-10.84V60.86c0-17.61,14.44-31.88,32.25-31.88h49.28C143.25,28.97,157.68,43.25,157.68,60.86z
		 M118.33,45.6v-3.77c0-1.1-0.89-1.99-1.99-1.99H84.56c-1.1,0-1.99,0.89-1.99,1.99v3.77c0,1.1,0.89,1.99,1.99,1.99h31.77
		C117.43,47.59,118.33,46.7,118.33,45.6z M146.11,106.79V63.18c0-2.78-2.25-5.03-5.03-5.03H60.19c-2.78,0-5.03,2.25-5.03,5.03v43.61
		c0,2.78,2.25,5.03,5.03,5.03h80.89C143.85,111.82,146.11,109.57,146.11,106.79z M64.26,122.87c-4.52,0-8.18,3.66-8.18,8.18
		s3.66,8.18,8.18,8.18s8.18-3.66,8.18-8.18S68.78,122.87,64.26,122.87z M137.37,122.87c-4.52,0-8.18,3.66-8.18,8.18
		s3.66,8.18,8.18,8.18s8.18-3.66,8.18-8.18S141.88,122.87,137.37,122.87z"/>
</g>
</svg>
