<svg id="Layer_1" data-name="Layer 1" xmlns="http://www.w3.org/2000/svg" viewBox="0 0 200 200">
    <defs>
        <style>.cls-1{fill:#428ccb;}.cls-2{font-size:27.05px;fill:#1d1d1b;font-family:AdobeArabic-Regular, Adobe
            Arabic;}.cls-3{fill:#fff;}
        </style>
    </defs>
    <text class="cls-2" transform="translate(73.66 -9.1)">camera</text>
    <path class="cls-3"
          d="M34.07,63l21.3.2a11.81,11.81,0,0,0,10-5.38l8.79-13.53a11.85,11.85,0,0,1,9.92-5.38h36.2a11.83,11.83,0,0,1,9.59,4.9L140.13,58a11.86,11.86,0,0,0,9.59,4.9h19.16a11.83,11.83,0,0,1,11.83,11.82v72.49a11.83,11.83,0,0,1-11.83,11.83H34a11.83,11.83,0,0,1-11.83-11.83V74.86A11.83,11.83,0,0,1,34.07,63Zm108.14,47.39a38.38,38.38,0,1,0-38.37,38.38A38.42,38.42,0,0,0,142.21,110.42Zm-10,0a28.38,28.38,0,1,1-28.37-28.37A28.41,28.41,0,0,1,132.21,110.42Zm13.42-40A5.54,5.54,0,1,0,151.16,76,5.54,5.54,0,0,0,145.63,70.45Z"/>
    <path class="cls-3"
          d="M37.89,47.57H51.14A3.83,3.83,0,0,1,55,51.4v7.21a0,0,0,0,1,0,0H34.06a0,0,0,0,1,0,0V51.4A3.83,3.83,0,0,1,37.89,47.57Z"/>
</svg>