<?xml version="1.0" encoding="utf-8"?>
<!-- Generator: Adobe Illustrator 24.1.0, SVG Export Plug-In . SVG Version: 6.00 Build 0)  -->
<svg version="1.1" id="Layer_1" xmlns="http://www.w3.org/2000/svg" xmlns:xlink="http://www.w3.org/1999/xlink" x="0px" y="0px"
	 viewBox="0 0 200 200" style="enable-background:new 0 0 200 200;" xml:space="preserve">
<style type="text/css">
	.st0{fill:#FFFFFF;}
</style>
<g>
	<path class="st0" d="M158.83,74.28l5.42,8.09c0.1,0.16,0.26,0.27,0.44,0.31c0.75,0.16,2.93,0.44,6.24-0.74
		c3.59-1.28,6.02-2.12,6.04-6c0.01-2.1-1.37-3.94-3.38-4.55c-1.93-0.59-4.37-0.94-9.9-0.26c-0.38,0.05-0.75,0.12-1.12,0.22
		c-0.95,0.26-2.62,0.86-3.67,2.04C158.68,73.63,158.65,74,158.83,74.28z"/>
	<path class="st0" d="M41.17,74.28l-5.42,8.09c-0.1,0.16-0.26,0.27-0.44,0.31c-0.75,0.16-2.93,0.44-6.24-0.74
		c-3.59-1.28-6.02-2.12-6.04-6c-0.01-2.1,1.37-3.94,3.38-4.55c1.93-0.59,4.37-0.94,9.9-0.26c0.38,0.05,0.75,0.12,1.12,0.22
		c0.95,0.26,2.62,0.86,3.67,2.04C41.32,73.63,41.35,74,41.17,74.28z"/>
	<path class="st0" d="M68.63,45.89c6.79-1.02,30.77-3.85,65.59,0.32c0,0,6.06-0.16,9.78,6.21c2.55,4.36,7.73,14.41,10.74,20.31
		c2.03,3.97,4.42,7.75,7.22,11.22c0.76,0.95,1.49,1.78,2.07,2.32c2.33,2.17,5.44,6.21,5.44,6.21s3.73,3.11,3.73,10.72s0,7.61,0,7.61
		v39.93c0,2.9-2.35,5.26-5.26,5.26h-14.17c-2.9,0-5.26-2.35-5.26-5.26v-8.56H53v8.56c0,2.9-2.35,5.26-5.26,5.26H33.56
		c-2.9,0-5.26-2.35-5.26-5.26v-45.52c0,0-1.24-9.16,4.35-14.44l5.59-5.75c0,0,4.19-5.12,6.06-9.16l10.56-21.12
		c0,0,2.77-7.48,10.4-8.44C66.39,46.17,67.51,46.05,68.63,45.89z M117.43,124.12v-3.88c0-1.27-1.03-2.29-2.29-2.29H85.48
		c-1.27,0-2.29,1.03-2.29,2.29v3.88c0,1.27,1.03,2.29,2.29,2.29h29.66C116.4,126.42,117.43,125.39,117.43,124.12z M159.22,110.96
		c2.25-1.33,3.63-3.74,3.67-6.35c0.06-3.85-1.16-9.17-8.46-8.86c-9.12,0.39-11.39,8.33-11.94,11.45c-0.13,0.78,0.17,1.57,0.78,2.07
		C149.94,114.71,155.8,112.99,159.22,110.96z M58.16,109.27c0.61-0.5,0.92-1.29,0.78-2.07c-0.54-3.13-2.82-11.07-11.94-11.45
		c-7.3-0.31-8.52,5.01-8.46,8.86c0.04,2.61,1.43,5.02,3.67,6.35C45.66,112.99,51.51,114.71,58.16,109.27z M51.07,79.89 M51.07,79.89
		c0,0,45.9-3.82,98,0l-11.23-21.3c-1.18-2.24-3.33-3.78-5.83-4.19c-8.29-1.36-29.33-3.66-62.91,0.28c-2.55,0.3-4.81,1.8-6.07,4.04
		L51.07,79.89z"/>
</g>
</svg>
