<?xml version="1.0" encoding="utf-8"?>
<!-- Generator: Adobe Illustrator 24.1.0, SVG Export Plug-In . SVG Version: 6.00 Build 0)  -->
<svg version="1.1" id="Layer_1" xmlns="http://www.w3.org/2000/svg" xmlns:xlink="http://www.w3.org/1999/xlink" x="0px" y="0px"
	 viewBox="0 0 200 200" style="enable-background:new 0 0 200 200;" xml:space="preserve">
<style type="text/css">
	.st0{fill:#FFFFFF;}
</style>
<path class="st0" d="M86.76,97.78c0,3.63-2.95,6.58-6.58,6.58c-3.63,0-6.58-2.95-6.58-6.58c0-3.63,2.95-6.58,6.58-6.58
	C83.81,91.2,86.76,94.15,86.76,97.78z M113.83,120.38c0,3.63-2.95,6.58-6.58,6.58s-6.58-2.95-6.58-6.58s2.95-6.58,6.58-6.58
	S113.83,116.75,113.83,120.38z M162.51,75.46h5.16c6.75,0,12.23,5.47,12.23,12.23v41.25c0,6.87-5.57,12.44-12.44,12.44h-4.74
	c-1.8,0-3.27-1.46-3.27-3.27v-7.4c0-0.56-0.45-1.01-1.01-1.01h-8.54c-0.02,0-0.04,0.02-0.04,0.04v0c0,4.47-3.62,8.09-8.09,8.09
	h-2.56c-0.69,0-1.24,0.56-1.24,1.24l0,0c0,5.65-4.58,10.23-10.23,10.23H69.22c-4.16,0-7.53-3.37-7.53-7.53v-3.76
	c0-0.56-0.45-1.01-1.01-1.01H46.61c-4.73,0-8.56-3.83-8.56-8.56v-10.31c0-0.64-0.52-1.16-1.16-1.16h-3.52
	c-0.64,0-1.16,0.52-1.16,1.16v15.32c0,3.34-2.71,6.05-6.05,6.05h0c-3.34,0-6.05-2.71-6.05-6.05V85.06c0-3.34,2.71-6.05,6.05-6.05h0
	c3.34,0,6.05,2.71,6.05,6.05v13.86c0,0.64,0.52,1.16,1.16,1.16h3.52c0.64,0,1.16-0.52,1.16-1.16V87.29c0-4.57,3.7-8.28,8.28-8.28
	h9.37c0.52,0,0.94-0.42,0.94-0.94l0-1.19c-0.01-4.93,3.98-8.93,8.91-8.93h13.42c0.33,0,0.6-0.27,0.6-0.6v-5.26
	c0-0.33-0.27-0.6-0.6-0.6H67.55c-2.81,0-5.09-2.28-5.09-5.09v-0.61c0-2.81,2.28-5.09,5.09-5.09h50.35c2.81,0,5.09,2.28,5.09,5.09
	v0.61c0,2.81-2.28,5.09-5.09,5.09h-12.91c-0.33,0-0.6,0.27-0.6,0.6v5.26c0,0.33,0.27,0.6,0.6,0.6h14.17c4.92,0,8.91,4,8.91,8.92
	l0,1.08c0,0.58,0.47,1.06,1.06,1.06h14.02c3.71,0,6.72,3.01,6.72,6.72v0c0,0.78,0.63,1.42,1.42,1.42h6.76
	c0.78,0,1.42-0.63,1.42-1.42v-7.21C159.45,76.83,160.82,75.46,162.51,75.46z M75.03,82.81L75.03,82.81
	c-0.14,1.79-2.2,2.73-3.65,1.67l0,0c-1.92-1.42-4.46,0.68-3.43,2.83v0c0.77,1.62-0.54,3.47-2.33,3.27h0
	c-2.37-0.27-3.52,2.82-1.56,4.17l0,0c1.48,1.02,1.27,3.27-0.38,3.99l0,0c-2.19,0.96-1.64,4.2,0.74,4.39h0
	c1.79,0.14,2.73,2.2,1.67,3.65l0,0c-1.42,1.92,0.68,4.46,2.83,3.43l0,0c1.62-0.77,3.47,0.54,3.27,2.33v0
	c-0.27,2.37,2.82,3.52,4.17,1.56l0,0c1.02-1.48,3.27-1.27,3.99,0.38l0,0c0.96,2.19,4.2,1.64,4.39-0.74v0
	c0.14-1.79,2.2-2.73,3.65-1.67l0,0c1.92,1.42,4.46-0.68,3.43-2.83l0,0c-0.77-1.62,0.54-3.47,2.33-3.27h0
	c2.37,0.27,3.52-2.82,1.56-4.17l0,0c-1.48-1.02-1.27-3.27,0.38-3.99h0c2.19-0.96,1.64-4.2-0.74-4.39h0
	c-1.79-0.14-2.73-2.2-1.67-3.65l0,0c1.42-1.92-0.68-4.46-2.83-3.43l0,0c-1.62,0.77-3.47-0.54-3.27-2.33v0
	c0.27-2.37-2.82-3.52-4.17-1.56l0,0c-1.02,1.48-3.27,1.27-3.99-0.38v0C78.47,79.89,75.22,80.43,75.03,82.81z M100.37,105.71
	L100.37,105.71c0.07,1.81-1.88,2.98-3.45,2.09l0,0c-2.08-1.19-4.37,1.19-3.1,3.23l0,0c0.96,1.53-0.13,3.52-1.94,3.53h0
	c-2.4,0.01-3.19,3.22-1.07,4.34l0,0c1.6,0.85,1.64,3.12,0.08,4.03l0,0c-2.07,1.21-1.15,4.38,1.25,4.29h0
	c1.81-0.07,2.98,1.88,2.09,3.45h0c-1.19,2.08,1.19,4.37,3.23,3.1l0,0c1.53-0.96,3.52,0.13,3.53,1.94v0c0.01,2.4,3.22,3.19,4.34,1.07
	l0,0c0.85-1.6,3.12-1.64,4.03-0.08l0,0c1.21,2.07,4.38,1.15,4.29-1.25v0c-0.07-1.81,1.88-2.98,3.45-2.09l0,0
	c2.08,1.19,4.37-1.19,3.1-3.23l0,0c-0.96-1.53,0.13-3.52,1.94-3.53h0c2.4-0.01,3.19-3.22,1.07-4.34l0,0
	c-1.6-0.85-1.64-3.12-0.08-4.03l0,0c2.07-1.21,1.15-4.38-1.25-4.29h0c-1.81,0.07-2.98-1.88-2.09-3.45l0,0
	c1.19-2.08-1.19-4.37-3.23-3.1l0,0c-1.53,0.96-3.52-0.13-3.53-1.94v0c-0.01-2.4-3.22-3.19-4.34-1.07l0,0
	c-0.85,1.6-3.12,1.64-4.03,0.08l0,0C103.46,102.4,100.29,103.32,100.37,105.71z"/>
</svg>
