<?xml version="1.0" encoding="utf-8"?>
<!-- Generator: Adobe Illustrator 24.1.0, SVG Export Plug-In . SVG Version: 6.00 Build 0)  -->
<svg version="1.1" id="Layer_1" xmlns="http://www.w3.org/2000/svg" xmlns:xlink="http://www.w3.org/1999/xlink" x="0px" y="0px"
	 viewBox="0 0 200 200" style="enable-background:new 0 0 200 200;" xml:space="preserve">
<style type="text/css">
	.st0{fill:#FFFFFF;}
	.st1{fill:#428CCB;}
	.st2{fill:#FFFFFF;stroke:#FFFFFF;stroke-miterlimit:10;}
	.st3{fill:none;stroke:#F6F6F6;stroke-miterlimit:10;}
	.st4{fill:none;stroke:#FFFFFF;stroke-width:5;stroke-miterlimit:10;}
	.st5{fill:none;stroke:#FFFFFF;stroke-width:3;stroke-miterlimit:10;}
	.st6{fill:#F6F6F6;}
	.st7{fill:none;stroke:#428CCB;stroke-width:2;stroke-miterlimit:10;}
	.st8{fill:#F49823;}
	.st9{fill:none;stroke:#428CCB;stroke-miterlimit:10;}
	.st10{fill:none;stroke:#FFFFFF;stroke-width:6;stroke-miterlimit:10;}
	.st11{fill:none;}
	.st12{fill:#FEFEFE;}
	.st13{fill:#656565;}
	.st14{fill:#F8B81E;}
	.st15{fill:none;stroke:#000000;stroke-miterlimit:10;}
	.st16{fill:none;stroke:#FFFFFF;stroke-miterlimit:10;}
	.st17{fill:none;stroke:#FFFFFF;stroke-width:2;stroke-miterlimit:10;}
	.st18{fill:none;stroke:#000000;stroke-width:3;stroke-miterlimit:10;}
</style>
<g>
	<path class="st0" d="M75.28,29.64c0.56-0.28,1.23-0.02,1.45,0.56c1.32,3.34,6.63,13.19,23.27,13.19c16.71,0,22.27-9.92,23.66-13.23
		c0.24-0.56,0.89-0.81,1.44-0.54l22.37,11.05c0.48,0.24,0.71,0.78,0.54,1.28c-1.25,3.62-5.71,19.47-5.96,61.69
		c-0.25,42.28-0.07,61.29-0.01,65.76c0.01,0.59-0.47,1.07-1.06,1.07h-80.7c-0.58,0-1.06-0.47-1.06-1.06v-66.57
		c0,0-0.74-45.39-7.15-60.57c-0.22-0.52-0.02-1.13,0.49-1.38L75.28,29.64z"/>
	<path class="st0" d="M150.62,47.58c-1.56,7.82-5.68,30.59-4.41,46.91c0.05,0.69,0.81,1.1,1.43,0.78l22.11-11.18
		c0.48-0.24,0.68-0.83,0.43-1.31l-17.72-35.44C152.04,46.51,150.8,46.67,150.62,47.58z"/>
	<path class="st0" d="M49.36,47.26c1.51,7.53,5.79,30.83,4.46,47.41c-0.05,0.61-0.72,0.97-1.27,0.69L30.2,84.05
		c-0.43-0.22-0.6-0.74-0.38-1.16l17.92-35.83C48.1,46.31,49.19,46.45,49.36,47.26z"/>
</g>
</svg>
