<?xml version="1.0" encoding="utf-8"?>
<!-- Generator: Adobe Illustrator 24.1.0, SVG Export Plug-In . SVG Version: 6.00 Build 0)  -->
<svg version="1.1" id="Layer_1" xmlns="http://www.w3.org/2000/svg" xmlns:xlink="http://www.w3.org/1999/xlink" x="0px" y="0px"
	 viewBox="0 0 200 200" style="enable-background:new 0 0 200 200;" xml:space="preserve">
<style type="text/css">
	.st0{fill:#FFFFFF;}
</style>
<g>
	<path class="st0" d="M120.55,125.17H31.11c-4.14,0-7.5-3.36-7.5-7.5V46.42c0-4.14,3.36-7.5,7.5-7.5h105.08c4.14,0,7.5,3.36,7.5,7.5
		v4.43v0.91l-8.85,0.03c0-0.35-0.04-0.8-0.11-1.13c-0.46-2.06-2.3-3.6-4.49-3.6H36.19c-2.54,0-4.6,2.06-4.6,4.6v53.3
		c0,2.54,2.06,4.6,4.6,4.6h84.32L120.55,125.17z M83.65,114.95c-1.47,0-2.67,1.19-2.67,2.67c0,1.47,1.19,2.67,2.67,2.67
		s2.67-1.19,2.67-2.67C86.31,116.15,85.12,114.95,83.65,114.95z"/>
	<path class="st0" d="M94.13,136.81v-5.67c0-0.86-0.7-1.56-1.56-1.56H75.21c-0.86,0-1.56,0.7-1.56,1.56v5.67
		c0,0.86-0.7,1.56-1.56,1.56H59.87c-0.86,0-1.56,0.7-1.56,1.56v4.63c0,0.86,0.7,1.56,1.56,1.56h46.92c0.86,0,1.56-0.7,1.56-1.56
		v-4.63c0-0.86-0.7-1.56-1.56-1.56H95.68C94.82,138.37,94.13,137.67,94.13,136.81z"/>
	<path class="st0" d="M171.73,161.07h-40.21c-2.57,0-4.65-2.08-4.65-4.65V61.36c0-2.57,2.08-4.65,4.65-4.65h40.21
		c2.57,0,4.65,2.08,4.65,4.65v95.06C176.39,158.99,174.3,161.07,171.73,161.07z M134.97,63.35c-1.06,0-1.93,0.86-1.93,1.93
		s0.86,1.93,1.93,1.93c1.06,0,1.93-0.86,1.93-1.93S136.04,63.35,134.97,63.35z M141.22,63.35c-1.06,0-1.93,0.86-1.93,1.93
		s0.86,1.93,1.93,1.93s1.93-0.86,1.93-1.93S142.29,63.35,141.22,63.35z M170.21,73.94L170.21,73.94c0-0.67-0.54-1.22-1.22-1.22
		h-34.74c-0.67,0-1.22,0.54-1.22,1.22v0c0,0.67,0.54,1.22,1.22,1.22H169C169.67,75.16,170.21,74.61,170.21,73.94z M151.66,140.95
		c-1.61,0-2.92,1.31-2.92,2.92s1.31,2.92,2.92,2.92s2.92-1.31,2.92-2.92S153.27,140.95,151.66,140.95z"/>
</g>
</svg>
