<?xml version="1.0" encoding="utf-8"?>
<!-- Generator: Adobe Illustrator 24.1.0, SVG Export Plug-In . SVG Version: 6.00 Build 0)  -->
<svg version="1.1" id="Layer_1" xmlns="http://www.w3.org/2000/svg" xmlns:xlink="http://www.w3.org/1999/xlink" x="0px" y="0px"
	 viewBox="0 0 200 200" style="enable-background:new 0 0 200 200;" xml:space="preserve">
<style type="text/css">
	.st0{fill:#FFFFFF;}
	.st1{fill:#428CCB;}
	.st2{fill:#FFFFFF;stroke:#FFFFFF;stroke-miterlimit:10;}
	.st3{fill:none;stroke:#F6F6F6;stroke-miterlimit:10;}
	.st4{fill:none;stroke:#FFFFFF;stroke-width:5;stroke-miterlimit:10;}
	.st5{fill:none;stroke:#FFFFFF;stroke-width:3;stroke-miterlimit:10;}
	.st6{fill:#F6F6F6;}
	.st7{fill:none;stroke:#428CCB;stroke-width:2;stroke-miterlimit:10;}
	.st8{fill:#F49823;}
	.st9{fill:none;stroke:#428CCB;stroke-miterlimit:10;}
	.st10{fill:none;stroke:#FFFFFF;stroke-width:6;stroke-miterlimit:10;}
	.st11{fill:none;}
	.st12{fill:#FEFEFE;}
	.st13{fill:#656565;}
	.st14{fill:#F8B81E;}
	.st15{fill:none;stroke:#000000;stroke-miterlimit:10;}
	.st16{fill:none;stroke:#FFFFFF;stroke-miterlimit:10;}
	.st17{fill:none;stroke:#FFFFFF;stroke-width:2;stroke-miterlimit:10;}
	.st18{fill:none;stroke:#000000;stroke-width:3;stroke-miterlimit:10;}
</style>
<g>
	<path class="st0" d="M163.96,163.56H66.44c-4.17,0-7.55-3.38-7.55-7.55V99.09c0-4.17,3.38-7.55,7.55-7.55h97.52
		c4.17,0,7.55,3.38,7.55,7.55v56.92C171.51,160.18,168.13,163.56,163.96,163.56z M163.62,130.63v-5.84c0-3.1-2.51-5.61-5.61-5.61
		h-16.08c-3.1,0-5.61,2.51-5.61,5.61v5.84c0,3.1,2.51,5.61,5.61,5.61h16.08C161.11,136.24,163.62,133.72,163.62,130.63z
		 M85.79,147.56L85.79,147.56c0-1.05-0.85-1.91-1.91-1.91H69.32c-1.05,0-1.91,0.85-1.91,1.91l0,0c0,1.05,0.85,1.91,1.91,1.91h14.56
		C84.94,149.46,85.79,148.61,85.79,147.56z M111.48,147.56L111.48,147.56c0-1.05-0.85-1.91-1.91-1.91H95.01
		c-1.05,0-1.91,0.85-1.91,1.91l0,0c0,1.05,0.85,1.91,1.91,1.91h14.56C110.63,149.46,111.48,148.61,111.48,147.56z M137.29,147.56
		L137.29,147.56c0-1.05-0.85-1.91-1.91-1.91h-14.56c-1.05,0-1.91,0.85-1.91,1.91l0,0c0,1.05,0.85,1.91,1.91,1.91h14.56
		C136.44,149.46,137.29,148.61,137.29,147.56z M162.99,147.56L162.99,147.56c0-1.05-0.85-1.91-1.91-1.91h-14.56
		c-1.05,0-1.91,0.85-1.91,1.91l0,0c0,1.05,0.85,1.91,1.91,1.91h14.56C162.13,149.46,162.99,148.61,162.99,147.56z"/>
	<path class="st0" d="M149.15,87.4l-83.24-0.17c-6.5,0-11.76,5.27-11.76,11.76v29.99c0,0-4.19,3.32-8.84-0.53
		c-1.3-1.07-2.2-2.55-2.62-4.18l-9.57-37.11l108.81-29.23L149.15,87.4z"/>
	<path class="st0" d="M30.18,77.26l109.07-29.47l-1.89-5.51c-1.47-4.3-6.02-6.72-10.41-5.55L34.91,61.34
		c-4.59,1.23-7.33,5.93-6.13,10.53L30.18,77.26z"/>
</g>
</svg>
