<?xml version="1.0" encoding="utf-8"?>
<!-- Generator: Adobe Illustrator 24.1.0, SVG Export Plug-In . SVG Version: 6.00 Build 0)  -->
<svg version="1.1" id="Layer_1" xmlns="http://www.w3.org/2000/svg" xmlns:xlink="http://www.w3.org/1999/xlink" x="0px" y="0px"
	 viewBox="0 0 200 200" style="enable-background:new 0 0 200 200;" xml:space="preserve">
<style type="text/css">
	.st0{fill:#FFFFFF;}
</style>
<g>
	<g>
		<path class="st0" d="M113.54,159.11H44.25c-11.67,0-21.13-9.46-21.13-21.13V53.48c0-11.67,9.46-21.13,21.13-21.13h111.5
			c11.67,0,21.13,9.46,21.13,21.13v84.51c0,11.67-9.46,21.13-21.13,21.13h-11.21l0-8.45h11.21c7,0,12.68-5.68,12.68-12.68V53.48
			c0-7-5.68-12.68-12.68-12.68H44.25c-7,0-12.68,5.68-12.68,12.68v84.51c0,7,5.68,12.68,12.68,12.68h69.27L113.54,159.11z"/>
	</g>
	<path class="st0" d="M142.19,136.12c1.71-0.75,2.29-2.39,2.46-3.8c0.2-1.67,1.2-2.29,2.66-3.11l2.21-1.05
		c1.35-0.79,3.2-1.61,3.75-3.47c0.42-1.42,0.35-3.45-0.3-4.77l-0.03-0.07c-1.48-3.01-1.57-7.37-0.19-10.42
		c0.26-0.56,0.52-1.14,0.78-1.73c1.57-3.46-0.82-7.41-4.61-7.63l0,0c-3.39-0.06-5.32-2.06-6.09-5.05l-0.34-0.96
		c-1.02-2.92-4.87-4.5-7.85-3.64c-0.23,0.07-0.44,0.17-0.64,0.29l0,0c-2.88,1.65-6.35,1.93-9.45,0.74h0
		c-4.65-2.6-9.31,0.06-9.77,4.27v0c-0.12,2.6-1.71,4.45-4.39,4.95c-0.79,0.15-1.56,0.34-2.3,0.65l-0.27,0.11
		c-2.76,1.16-4.05,4.35-2.85,7.1l0.43,0.99c1.25,2.88,1.09,6.17-0.43,8.91l0,0h0c-1.04,2.67-0.14,7.41,2.67,8.75l3.3,1.58
		c1.46,0.69,2.49,2.05,2.77,3.63v0c0.08,0.44,0.22,0.87,0.41,1.28l1.04,2.2v6.23H45.94c-3.71,0-6.71-3-6.71-6.71V54.65
		c0-3.71,3-6.71,6.71-6.71H155c3.71,0,6.71,3,6.71,6.71v80.75c0,3.71-3,6.71-6.71,6.71h-12.83L142.19,136.12z M99.67,59.75
		c-5.5,0-9.96,4.46-9.96,9.96s4.46,9.96,9.96,9.96c5.5,0,9.96-4.46,9.96-9.96S105.17,59.75,99.67,59.75z M149.24,64.99L149.24,64.99
		c0-1.02-0.83-1.85-1.85-1.85h-27.31c-1.02,0-1.85,0.83-1.85,1.85v0c0,1.02,0.83,1.85,1.85,1.85h27.31
		C148.42,66.84,149.24,66.02,149.24,64.99z M82.1,64.99L82.1,64.99c0-1.02-0.83-1.85-1.85-1.85H52.93c-1.02,0-1.85,0.83-1.85,1.85v0
		c0,1.02,0.83,1.85,1.85,1.85h27.31C81.27,66.84,82.1,66.02,82.1,64.99z M137.72,74.1L137.72,74.1c0-0.79-0.64-1.42-1.42-1.42
		h-18.35c-0.79,0-1.42,0.64-1.42,1.42l0,0c0,0.79,0.64,1.42,1.42,1.42h18.35C137.08,75.52,137.72,74.88,137.72,74.1z M82.55,74.1
		L82.55,74.1c0-0.79-0.64-1.42-1.42-1.42H62.77c-0.79,0-1.42,0.64-1.42,1.42l0,0c0,0.79,0.64,1.42,1.42,1.42h18.35
		C81.91,75.52,82.55,74.88,82.55,74.1z"/>
	<path class="st0" d="M149,117.86c-2.06-1.88-2.04-5.13,0.04-6.99l0,0c3.31-2.95,1.08-8.42-3.35-8.22
		c-2.79,0.13-5.07-2.18-4.92-4.97l0,0c0.25-4.42-5.19-6.71-8.18-3.44c-1.88,2.06-5.13,2.04-6.99-0.04
		c-2.95-3.31-8.42-1.08-8.22,3.35v0.34c0,2.76-2.24,4.72-4.99,4.58c-4.41-0.23-6.69,5.2-3.42,8.18l0,0
		c2.06,1.88,2.04,5.13-0.04,6.99l0,0c-3.31,2.95-1.08,8.42,3.35,8.22l0,0c2.79-0.13,5.07,2.18,4.92,4.97l0,0
		c-0.1,1.78,0.72,3.21,1.93,4.08v32.75l10.22-9.26l10.22,9.26v-33.54c0.67-0.83,1.07-1.91,1.02-3.17c-0.13-2.79,2.18-5.07,4.97-4.92
		C149.99,126.29,152.28,120.84,149,117.86z M130.47,126.09c-7.7,0.76-14.11-5.65-13.35-13.35c0.56-5.69,5.17-10.3,10.86-10.86
		c7.7-0.76,14.11,5.65,13.35,13.35C140.77,120.92,136.16,125.53,130.47,126.09z"/>
</g>
</svg>
