<?xml version="1.0" encoding="utf-8"?>
<!-- Generator: Adobe Illustrator 24.1.0, SVG Export Plug-In . SVG Version: 6.00 Build 0)  -->
<svg version="1.1" id="Layer_1" xmlns="http://www.w3.org/2000/svg" xmlns:xlink="http://www.w3.org/1999/xlink" x="0px" y="0px"
	 viewBox="0 0 200 200" style="enable-background:new 0 0 200 200;" xml:space="preserve">
<style type="text/css">
	.st0{fill:#FFFFFF;}
	.st1{fill:#428CCB;}
	.st2{fill:#FFFFFF;stroke:#FFFFFF;stroke-miterlimit:10;}
	.st3{fill:none;stroke:#F6F6F6;stroke-miterlimit:10;}
	.st4{fill:none;stroke:#FFFFFF;stroke-width:5;stroke-miterlimit:10;}
	.st5{fill:none;stroke:#FFFFFF;stroke-width:3;stroke-miterlimit:10;}
	.st6{fill:#F6F6F6;}
	.st7{fill:none;stroke:#428CCB;stroke-width:2;stroke-miterlimit:10;}
	.st8{fill:#F49823;}
	.st9{fill:none;stroke:#428CCB;stroke-miterlimit:10;}
	.st10{fill:none;stroke:#FFFFFF;stroke-width:6;stroke-miterlimit:10;}
	.st11{fill:none;}
	.st12{fill:#FEFEFE;}
	.st13{fill:#656565;}
	.st14{fill:#F8B81E;}
	.st15{fill:none;stroke:#000000;stroke-miterlimit:10;}
	.st16{clip-path:url(#SVGID_2_);}
	.st17{clip-path:url(#SVGID_4_);}
	.st18{fill:none;stroke:#FFFFFF;stroke-miterlimit:10;}
	.st19{fill:none;stroke:#FFFFFF;stroke-width:2;stroke-miterlimit:10;}
</style>
<g>
	<path class="st0" d="M80.07,122.62c-0.29-3.53-1.73-9.05-6.59-16.47c-2.16-3.3-4.67-6.35-7.35-9.23
		c-3.4-3.65-10.98-13.59-10.38-29.22c0.77-20.1,13.14-45.61,42.9-45.22c29.76,0.39,42.9,15.46,45.61,45.99
		c0,0,1.16,18.29-11.21,30.02c-8.38,7.95-10.55,18.32-11.08,24.18c-0.23,2.57-2.37,4.55-4.95,4.55h-32
		C82.41,127.22,80.28,125.21,80.07,122.62z M100.12,39.44L79.56,80.18c-0.3,0.6,0.13,1.3,0.8,1.3h18.73c0.67,0,1.11,0.71,0.8,1.31
		l-13.47,26.65c-0.48,0.95,0.8,1.8,1.49,0.98l32.1-38.19c0.49-0.59,0.08-1.48-0.69-1.48h-16.19c-0.71,0-1.14-0.77-0.76-1.37
		l18.03-29.07c0.37-0.6-0.06-1.37-0.76-1.37h-18.72C100.58,38.94,100.27,39.13,100.12,39.44z"/>
	<path class="st0" d="M84.03,144.37V134.2c0-0.81,0.66-1.47,1.47-1.47h29c0.81,0,1.47,0.66,1.47,1.47v6.54
		c0,0.74-0.55,1.36-1.28,1.46l-29,3.63C84.81,145.94,84.03,145.25,84.03,144.37z"/>
	<path class="st0" d="M114.42,161.56c0.86,0,1.55,0.74,1.47,1.6c-0.8,8.07-7.61,14.37-15.89,14.37h0c-8.28,0-15.09-6.3-15.89-14.37
		c-0.08-0.86,0.61-1.6,1.47-1.6H114.42z"/>
	<path class="st0" d="M114.32,146.23l-29,3.51c-0.74,0.09-1.29,0.71-1.29,1.46v4.86c0,0.81,0.66,1.47,1.47,1.47h29
		c0.81,0,1.47-0.66,1.47-1.47v-8.37C115.97,146.81,115.2,146.13,114.32,146.23z"/>
</g>
</svg>
