<svg id="Layer_1" data-name="Layer 1" xmlns="http://www.w3.org/2000/svg" viewBox="0 0 200 200">
    <defs>
        <style>.cls-1{fill:#428ccb;}.cls-2{fill:#fff;}</style>
    </defs>
    <path class="cls-2"
          d="M178,99.29a3.35,3.35,0,0,0,0-6.7h-3.7a35.17,35.17,0,0,0-66.6-12.11,15.46,15.46,0,0,0-9-2.16,15.16,15.16,0,0,0-6.46,2.08A35.17,35.17,0,0,0,25.7,92.59H22a3.35,3.35,0,0,0,0,6.7h3.7a35,35,0,0,0,6,16.52c-5.14,3-11,9.25-12,19.77a3.37,3.37,0,0,0,3.4,3.66,3.33,3.33,0,0,0,3.27-3c.86-9.54,6.72-13.67,9.77-15.19A35.15,35.15,0,0,0,94.67,86.78,9.11,9.11,0,0,1,99.24,85a9.63,9.63,0,0,1,6.06,1.88,35.15,35.15,0,0,0,58.58,34.17c3.05,1.52,8.91,5.65,9.77,15.19a3.33,3.33,0,0,0,3.27,3,3.37,3.37,0,0,0,3.4-3.66c-1-10.52-6.89-16.74-12-19.77a35,35,0,0,0,6-16.52ZM60.71,123.07A27.14,27.14,0,1,1,87.85,95.94,27.16,27.16,0,0,1,60.71,123.07Zm78.58,0a27.14,27.14,0,1,1,27.13-27.13A27.16,27.16,0,0,1,139.29,123.07Z"/>
</svg>