<?xml version="1.0" encoding="utf-8"?>
<!-- Generator: Adobe Illustrator 24.1.0, SVG Export Plug-In . SVG Version: 6.00 Build 0)  -->
<svg version="1.1" id="Layer_1" xmlns="http://www.w3.org/2000/svg" xmlns:xlink="http://www.w3.org/1999/xlink" x="0px" y="0px"
	 viewBox="0 0 200 200" style="enable-background:new 0 0 200 200;" xml:space="preserve">
<style type="text/css">
	.st0{fill:#428CCB;}
	.st1{fill:#FFFFFF;}
	.st2{fill:#FFFFFF;stroke:#FFFFFF;stroke-miterlimit:10;}
	.st3{fill:none;stroke:#FFFFFF;stroke-width:5;stroke-miterlimit:10;}
	.st4{fill:none;stroke:#F6F6F6;stroke-miterlimit:10;}
	.st5{fill:none;stroke:#FFFFFF;stroke-width:3;stroke-miterlimit:10;}
	.st6{fill:#F6F6F6;}
	.st7{fill:none;stroke:#428CCB;stroke-width:2;stroke-miterlimit:10;}
</style>
<g>
	<path class="st1" d="M103.96,124.75l32.25,49.7c0.47,0.72,1.44,0.93,2.17,0.46l8.24-5.38c0.73-0.48,0.93-1.46,0.44-2.18
		l-35.83-53.44L103.96,124.75z"/>
	<path class="st1" d="M102.04,99.89L57.56,31.74c-1.96-3-6.45-2.69-7.97,0.56c-3.88,8.32-7.22,24.41,6.9,46.83
		c16.36,25.97,27.84,27.1,33.69,28.34c1.89,0.4,3.54,1.53,4.6,3.15L102.04,99.89z"/>
	<path class="st1" d="M142.5,63.71l18.33-27.71c0.37-0.56,1.13-0.72,1.7-0.35l0.58,0.39c0.56,0.37,0.72,1.13,0.13,2.07l-17.55,31.13
		l-0.59,0.84l-8.23,12.45c0,0-2.4,3.49-6.66,2.57c-0.95-0.2-1.92,0.2-2.46,1.01l-5.41,8.17l-53.43,80.49
		c-0.26,0.4-0.79,0.5-1.19,0.24l-8.94-5.92c-0.4-0.26-0.5-0.79-0.24-1.19l53.36-80.38l5.64-8.53c0.36-0.54,0.34-1.26-0.08-1.76
		c-1.39-1.71-3.74-5.47-1.63-8.65c1.95-2.95,7.04-10.63,8.22-12.42l0,0c0.54-0.82,1.11-1.62,1.71-2.4l20.88-27.14
		c0.37-0.56,1.13-0.72,1.7-0.35l0.58,0.39c0.56,0.37,0.72,1.13,0.35,1.7l-18.34,27.71c-0.73,1.11-0.43,2.59,0.68,3.33l0.31,0.2
		c1.23,0.81,2.88,0.48,3.69-0.75l18.19-27.49c0.37-0.56,1.13-0.72,1.7-0.35l0.58,0.39c0.56,0.37,0.72,1.13,0.35,1.7L138.2,60.66
		c-0.79,1.19-0.46,2.8,0.73,3.59l0.22,0.15C140.27,65.13,141.77,64.83,142.5,63.71z"/>
</g>
</svg>
