<?xml version="1.0" encoding="utf-8"?>
<!-- Generator: Adobe Illustrator 24.1.0, SVG Export Plug-In . SVG Version: 6.00 Build 0)  -->
<svg version="1.1" id="Layer_1" xmlns="http://www.w3.org/2000/svg" xmlns:xlink="http://www.w3.org/1999/xlink" x="0px" y="0px"
	 viewBox="0 0 200 200" style="enable-background:new 0 0 200 200;" xml:space="preserve">
<style type="text/css">
	.st0{fill:#FFFFFF;}
	.st1{fill:#428CCB;}
	.st2{fill:#FFFFFF;stroke:#FFFFFF;stroke-miterlimit:10;}
	.st3{fill:none;stroke:#F6F6F6;stroke-miterlimit:10;}
	.st4{fill:none;stroke:#FFFFFF;stroke-width:5;stroke-miterlimit:10;}
	.st5{fill:none;stroke:#FFFFFF;stroke-width:3;stroke-miterlimit:10;}
	.st6{fill:#F6F6F6;}
	.st7{fill:none;stroke:#428CCB;stroke-width:2;stroke-miterlimit:10;}
	.st8{fill:#F49823;}
	.st9{fill:none;stroke:#428CCB;stroke-miterlimit:10;}
	.st10{fill:none;stroke:#FFFFFF;stroke-width:6;stroke-miterlimit:10;}
	.st11{fill:none;}
	.st12{fill:#FEFEFE;}
	.st13{fill:#656565;}
	.st14{fill:#F8B81E;}
	.st15{fill:none;stroke:#000000;stroke-miterlimit:10;}
	.st16{clip-path:url(#SVGID_2_);}
	.st17{clip-path:url(#SVGID_4_);}
	.st18{fill:none;stroke:#FFFFFF;stroke-miterlimit:10;}
	.st19{fill:none;stroke:#FFFFFF;stroke-width:2;stroke-miterlimit:10;}
</style>
<g>
	<path class="st0" d="M156.07,139.85h8.72c0.61,0,1.09-0.48,1.07-1.09c-0.1-3.26-0.29-13.38,0.8-23.45
		c1.01-9.29,5.38-17.66,11.26-24.92c1.54-1.9,2.8-5.52,1.72-12.39c-2.17-13.74-15.19-10.13-15.19-10.13s-8.68,1.81-9.4,30.74
		c-0.6,24.16-0.2,36.72-0.05,40.21C155.03,139.4,155.5,139.85,156.07,139.85z"/>
	<path class="st0" d="M43.77,139.85h-8.39c-0.7,0-1.26-0.57-1.24-1.27c0.1-3.44,0.26-13.38-0.81-23.28
		c-1.01-9.29-5.38-17.65-11.26-24.91c-1.54-1.9-2.8-5.52-1.72-12.39c2.17-13.74,15.19-10.13,15.19-10.13s8.68,1.81,9.4,30.74
		c0.6,23.82,0.21,36.37,0.06,40.05C44.97,139.34,44.43,139.85,43.77,139.85z"/>
	<path class="st0" d="M48.27,106.15c0,0,6.09-11.32,19.88-11.06c11.93,0.23,54.6,0.06,65.92,0.01c3.41-0.01,6.81,0.66,9.87,2.17
		c3.09,1.52,6.32,4.05,7.74,8.23c0,0-4.68-38.97,13.78-42.33c2.54-0.46,3.89-3.33,2.56-5.55c-3.57-5.97-11.83-13.95-29.35-8.06
		c0,0-20.59,7.44-50.62,4.12c-9.45-1.05-18.66-3.57-27.53-7c-5.79-2.24-14.74-3.95-21.24,2.88c0,0-3.41,3.23-4.39,9.81
		c-0.26,1.72,0.71,3.38,2.33,4.01C41.52,65.04,48.06,71.82,48.27,106.15z"/>
	<path class="st0" d="M48.86,119.01v-2.98c0-1.37,0.23-2.73,0.71-4.01c1.51-4.04,5.64-12.18,14.44-12.18h71.76
		c4.11,0,8.14,1.44,11.13,4.26c2.24,2.11,4.19,5.18,4.54,9.54v5.37c0,1.5-1.22,2.72-2.72,2.72H51.59
		C50.08,121.74,48.86,120.52,48.86,119.01z"/>
	<path class="st0" d="M149.49,139.85H51.86c-1.08,0-1.95-0.87-1.95-1.95v-9.27c0-1.08,0.87-1.95,1.95-1.95h97.63
		c1.08,0,1.95,0.87,1.95,1.95v9.27C151.44,138.98,150.57,139.85,149.49,139.85z"/>
	<path class="st0" d="M44.37,155.3h-5.56c-0.49,0-0.9-0.4-0.9-0.9v-11.09c0-0.49,0.4-0.9,0.9-0.9h5.56c0.49,0,0.9,0.4,0.9,0.9v11.09
		C45.27,154.9,44.87,155.3,44.37,155.3z"/>
	<path class="st0" d="M161.19,155.3h-5.56c-0.49,0-0.9-0.4-0.9-0.9v-11.09c0-0.49,0.4-0.9,0.9-0.9h5.56c0.49,0,0.9,0.4,0.9,0.9
		v11.09C162.08,154.9,161.68,155.3,161.19,155.3z"/>
</g>
</svg>
