<?xml version="1.0" encoding="utf-8"?>
<!-- Generator: Adobe Illustrator 24.1.0, SVG Export Plug-In . SVG Version: 6.00 Build 0)  -->
<svg version="1.1" id="Layer_1" xmlns="http://www.w3.org/2000/svg" xmlns:xlink="http://www.w3.org/1999/xlink" x="0px" y="0px"
	 viewBox="0 0 200 200" style="enable-background:new 0 0 200 200;" xml:space="preserve">
<style type="text/css">
	.st0{fill:#FFFFFF;}
</style>
<path class="st0" d="M136.64,76.58h-30.35v-2.68c0-1.4-1.13-2.53-2.53-2.53h-1.48v-4c0-1.66,0.67-3.18,1.83-4.17
	c1.35-1.15,3.24-1.57,5.63-1.27l12.95,2.25c0.43,0.08,0.95,0.17,1.45,0.27c4.65,0.99,10.41,0.11,12.65-5.36
	c0.47-1.14,0.7-2.42,0.7-3.79v-5.05c0-1.48-1.2-2.67-2.67-2.67l0,0c-1.48,0-2.67,1.2-2.67,2.67v5.05c0,0.68-0.1,1.27-0.31,1.77
	c-1.21,2.95-5,2.49-6.58,2.15c-0.59-0.13-1.17-0.23-1.65-0.31l-13.01-2.26l-0.1-0.02c-4.96-0.66-8.09,0.99-9.86,2.49
	c-2.35,2.01-3.71,5.01-3.71,8.24v4H95.4c-1.4,0-2.53,1.13-2.53,2.53v2.68h-29.5c-19.52,0-35.34,15.82-35.34,35.34
	c0,19.52,15.82,35.34,35.34,35.34c12.73,0,23.88-6.73,30.1-16.82h13.07c6.22,10.09,17.37,16.82,30.1,16.82
	c19.52,0,35.34-15.82,35.34-35.34C171.97,92.41,156.15,76.58,136.64,76.58z M77.66,112.97c0,1.01-0.82,1.83-1.83,1.83h-8.78v8.54
	c0,1.01-0.82,1.83-1.83,1.83H59.3c-1.01,0-1.83-0.82-1.83-1.83v-8.54h-8.78c-1.01,0-1.83-0.82-1.83-1.83v-5.92
	c0-1.01,0.82-1.83,1.83-1.83h8.78v-8.54c0-1.01,0.82-1.83,1.83-1.83h5.92c1.01,0,1.83,0.82,1.83,1.83v8.54h8.78
	c1.01,0,1.83,0.82,1.83,1.83V112.97z M124.69,116.38c-3.43,0-6.22-2.78-6.22-6.22c0-3.43,2.78-6.22,6.22-6.22
	c3.43,0,6.22,2.78,6.22,6.22C130.9,113.59,128.12,116.38,124.69,116.38z M137.81,129.5c-3.43,0-6.22-2.78-6.22-6.22
	c0-3.43,2.78-6.22,6.22-6.22c3.43,0,6.22,2.78,6.22,6.22C144.03,126.72,141.25,129.5,137.81,129.5z M137.81,103.15
	c-3.43,0-6.22-2.78-6.22-6.22c0-3.43,2.78-6.22,6.22-6.22c3.43,0,6.22,2.78,6.22,6.22C144.03,100.37,141.25,103.15,137.81,103.15z
	 M151.04,116.38c-3.43,0-6.22-2.78-6.22-6.22c0-3.43,2.78-6.22,6.22-6.22c3.43,0,6.22,2.78,6.22,6.22
	C157.26,113.59,154.47,116.38,151.04,116.38z"/>
</svg>
