<?xml version="1.0" encoding="utf-8"?>
<!-- Generator: Adobe Illustrator 24.1.0, SVG Export Plug-In . SVG Version: 6.00 Build 0)  -->
<svg version="1.1" id="Layer_1" xmlns="http://www.w3.org/2000/svg" xmlns:xlink="http://www.w3.org/1999/xlink" x="0px" y="0px"
	 viewBox="0 0 200 200" style="enable-background:new 0 0 200 200;" xml:space="preserve">
<style type="text/css">
	.st0{fill:#428CCB;}
	.st1{fill:#FFFFFF;}
	.st2{fill:#FFFFFF;stroke:#FFFFFF;stroke-miterlimit:10;}
	.st3{fill:none;stroke:#FFFFFF;stroke-width:5;stroke-miterlimit:10;}
	.st4{fill:none;stroke:#F6F6F6;stroke-miterlimit:10;}
	.st5{fill:none;stroke:#FFFFFF;stroke-width:3;stroke-miterlimit:10;}
	.st6{fill:#F6F6F6;}
	.st7{fill:none;stroke:#428CCB;stroke-width:2;stroke-miterlimit:10;}
</style>
<g>
	<path class="st1" d="M136.73,177.84H45.25c-2.53,0-4.58-2.05-4.58-4.58v-4.28c0-2.53,2.05-4.58,4.58-4.58h91.48
		c2.53,0,4.58,2.05,4.58,4.58v4.28C141.31,175.79,139.26,177.84,136.73,177.84z"/>
	<path class="st1" d="M172.19,92.97c-0.07-5.9-2.81-8.9-3.08-9.18c-0.02-0.02-0.03-0.03-0.04-0.05l-4.81-5.62
		c-0.7-0.82-1.43-1.61-2.2-2.37l-17.7-17.53c-0.26-0.26-0.63-0.37-0.99-0.31c-2.37,0.43-4.23,2.28-4.66,4.64l-0.1,0.52
		c-0.07,0.36,0.05,0.73,0.3,0.99l11.93,12.14c0.22,0.22,0.33,0.52,0.32,0.83c-0.08,2.11-0.38,10.6-0.05,13.79
		c0.33,3.28,1.7,4.54,1.98,4.77c0.04,0.03,0.07,0.06,0.11,0.09l10.31,10.53c0.2,0.21,0.32,0.49,0.32,0.78
		c0.01,2.63,0.06,15.98-0.37,21.73c-0.48,6.4-0.7,6.47-1.81,10.72c-1.11,4.25-5.14,3.59-5.14,3.59s-1.7,0.04-3.44-3.18
		c-1.74-3.22-2.44-11.16-2.44-17.86s-1.26-9.8-1.26-9.8s-1.63-3.77-4.99-5.88c-2.33-1.46-6.64-1.8-9.08-1.87v-53.1
		c0-16.12-13.07-29.19-29.19-29.19H76.44c-16.12,0-29.19,13.07-29.19,29.19v105.45c0,1.27,1.03,2.31,2.31,2.31H133
		c1.27,0,2.31-1.03,2.31-2.31v-43.79h2.68c4.21,0,4.21,4.36,4.21,4.36l1,16.01c0,0.02,0,0.04,0,0.06
		c0.01,0.81,0.3,17.32,13.86,17.86c13.9,0.55,14.46-16.93,14.46-16.93l0.66-11.1c0-0.02,0-0.04,0-0.06
		C172.19,122.24,172.26,99.05,172.19,92.97z M117.83,79.54c0,0.82-0.67,1.49-1.49,1.49H66.21c-0.82,0-1.49-0.67-1.49-1.49V43.82
		c0-0.82,0.67-1.49,1.49-1.49h50.14c0.82,0,1.49,0.67,1.49,1.49V79.54z"/>
</g>
</svg>
