<?xml version="1.0" encoding="utf-8"?>
<!-- Generator: Adobe Illustrator 24.1.0, SVG Export Plug-In . SVG Version: 6.00 Build 0)  -->
<svg version="1.1" id="Layer_1" xmlns="http://www.w3.org/2000/svg" xmlns:xlink="http://www.w3.org/1999/xlink" x="0px" y="0px"
	 viewBox="0 0 200 200" style="enable-background:new 0 0 200 200;" xml:space="preserve">
<style type="text/css">
	.st0{fill:#FFFFFF;}
	.st1{fill:#428CCB;}
	.st2{fill:#FFFFFF;stroke:#FFFFFF;stroke-miterlimit:10;}
	.st3{fill:none;stroke:#F6F6F6;stroke-miterlimit:10;}
	.st4{fill:none;stroke:#FFFFFF;stroke-width:5;stroke-miterlimit:10;}
	.st5{fill:none;stroke:#FFFFFF;stroke-width:3;stroke-miterlimit:10;}
	.st6{fill:#F6F6F6;}
	.st7{fill:none;stroke:#428CCB;stroke-width:2;stroke-miterlimit:10;}
	.st8{fill:#F49823;}
	.st9{fill:none;stroke:#428CCB;stroke-miterlimit:10;}
	.st10{fill:none;stroke:#FFFFFF;stroke-width:6;stroke-miterlimit:10;}
	.st11{fill:none;}
	.st12{fill:#FEFEFE;}
	.st13{fill:#656565;}
	.st14{fill:#F8B81E;}
	.st15{fill:none;stroke:#000000;stroke-miterlimit:10;}
	.st16{fill:none;stroke:#FFFFFF;stroke-miterlimit:10;}
	.st17{fill:none;stroke:#FFFFFF;stroke-width:2;stroke-miterlimit:10;}
	.st18{fill:none;stroke:#000000;stroke-width:3;stroke-miterlimit:10;}
</style>
<g>
	<path class="st0" d="M109.96,44.23l12.8-11.13c3.32-2.88,7.45-4.73,11.83-5.04c5.32-0.38,12.03,1.29,17.59,9.48
		c0,0,5.43,9.71,0,18.48h9.96c5.42,0,9.8,4.39,9.8,9.8v13.93c0,2.58-2.09,4.67-4.67,4.67H32.72c-2.58,0-4.67-2.09-4.67-4.67V65.18
		c0-5.42,4.39-9.8,9.8-9.8h9.68c0,0-5.05-3.04-1.54-15.71c0,0,3.43-10.2,14.88-11.64c0,0,7.93-1.03,13.41,3.22l15.05,13.41
		c0,0,3.26-4.58,10.34-4.58S109.96,44.23,109.96,44.23z M137.22,55.53c4.61-0.8,6.28-4.93,6.28-4.93c0.84-1.85,0.91-3.54,0.68-4.94
		c-0.44-2.65-2.18-4.89-4.53-6.19c-2.46-1.37-4.8-1.15-6.55-0.57c-1.38,0.46-2.62,1.25-3.69,2.24l-15.48,14.38H137.22z M86.08,55.53
		L69.71,40.88c-1.4-1.25-3.11-2.12-4.96-2.39c-1.5-0.22-3.28-0.09-5.07,0.91c-2.98,1.67-4.78,4.95-4.61,8.37
		c0.08,1.63,0.59,3.46,2.06,5.05c0,0,2.23,2.55,5.65,2.7H86.08z"/>
	<path class="st0" d="M38.44,92.85h50.64c0.98,0,1.77,0.79,1.77,1.77v75.7c0,0.98-0.79,1.77-1.77,1.77H53.67
		c-9.39,0-16.99-7.61-16.99-16.99V94.62C36.67,93.64,37.46,92.85,38.44,92.85z"/>
	<path class="st0" d="M110.1,92.85h50.64c0.98,0,1.77,0.79,1.77,1.77v60.48c0,9.39-7.61,16.99-16.99,16.99H110.1
		c-0.98,0-1.77-0.79-1.77-1.77v-75.7C108.33,93.64,109.12,92.85,110.1,92.85z"/>
</g>
</svg>
