<?xml version="1.0" encoding="utf-8"?>
<!-- Generator: Adobe Illustrator 24.1.0, SVG Export Plug-In . SVG Version: 6.00 Build 0)  -->
<svg version="1.1" id="Layer_1" xmlns="http://www.w3.org/2000/svg" xmlns:xlink="http://www.w3.org/1999/xlink" x="0px" y="0px"
	 viewBox="0 0 200 200" style="enable-background:new 0 0 200 200;" xml:space="preserve">
<style type="text/css">
	.st0{fill:#FFFFFF;}
	.st1{fill:#428CCB;}
	.st2{fill:#FFFFFF;stroke:#FFFFFF;stroke-miterlimit:10;}
	.st3{fill:none;stroke:#F6F6F6;stroke-miterlimit:10;}
	.st4{fill:none;stroke:#FFFFFF;stroke-width:5;stroke-miterlimit:10;}
	.st5{fill:none;stroke:#FFFFFF;stroke-width:3;stroke-miterlimit:10;}
	.st6{fill:#F6F6F6;}
	.st7{fill:none;stroke:#428CCB;stroke-width:2;stroke-miterlimit:10;}
	.st8{fill:#F49823;}
	.st9{fill:none;stroke:#428CCB;stroke-miterlimit:10;}
	.st10{fill:none;stroke:#FFFFFF;stroke-width:6;stroke-miterlimit:10;}
	.st11{fill:none;}
	.st12{fill:#FEFEFE;}
	.st13{fill:#656565;}
	.st14{fill:#F8B81E;}
	.st15{fill:none;stroke:#000000;stroke-miterlimit:10;}
	.st16{fill:none;stroke:#FFFFFF;stroke-miterlimit:10;}
	.st17{fill:none;stroke:#FFFFFF;stroke-width:2;stroke-miterlimit:10;}
	.st18{fill:none;stroke:#000000;stroke-width:3;stroke-miterlimit:10;}
</style>
<g>
	<path class="st0" d="M87.81,99.4l26.73-59.38c3.57-7.8,12.57-11.51,20.6-8.49l0,0c1.86,0.7,2.74,2.82,1.93,4.63l-22.86,52.06
		l52.41-23.58c1.71-0.76,3.71,0.06,4.39,1.81v0c3.1,7.97-0.54,16.97-8.31,20.54l-60.12,27.98c-0.18,8.08-17.49,22.98-17.49,22.98
		c1.63,0.36,8.14,4.22,8.14,4.22c6.03,3.8,7.35,11.02,7.35,11.02c1.95,6.27-2.37,13.88-2.37,13.88c-4.32,9.36-14.4,11-14.4,11
		s-13.06,3.09-19.75-8.23c-6.68-11.31,2.26-22.42,2.26-22.42l7.71-8.02c6.89-5.76,9.67-13.06,9.67-13.06s2.98-5.86,0-8.12
		c-2.98-2.26-8.64,0.82-8.64,0.82c-5.14,1.75-16.35,13.37-16.35,13.37c-7.1,8.84-16.58,8.14-16.58,8.14
		c-17.85-0.18-18.2-18.03-18.2-18.03s0-11.36,9.55-17.49c9.55-6.13,18.39-2.52,18.39-2.52c7.57,1.98,13.16,15.15,13.16,15.15
		C79.58,100.02,87.81,99.4,87.81,99.4z M94.22,104.18c-2.28,0-4.14,1.85-4.14,4.14c0,2.28,1.85,4.14,4.14,4.14
		c2.28,0,4.14-1.85,4.14-4.14C98.35,106.03,96.5,104.18,94.22,104.18z M59.92,122.47c0,0-4.49-15.75-15.21-14.61
		s-13.77,10.96-13.77,10.96s-3.73,13.04,9.7,15.51c0,0,4.85,0.6,8.38-1.92C49.02,132.42,55.78,127.26,59.92,122.47z M70.2,153.97
		c-2.4,3.61-1.64,8.44-1.64,8.44c2.92,13.34,15.82,9.19,15.82,9.19s9.72-3.38,10.5-14.13c0.78-10.75-15.11-14.72-15.11-14.72
		C75.12,147.04,70.2,153.97,70.2,153.97z"/>
	<path class="st0" d="M77.84,98.47c1.01-0.7,3.48-2.34,5.49-2.91c0.19-0.05,0.35-0.18,0.44-0.36l10.96-23.4
		c0.17-0.36-0.29-0.68-0.57-0.4L83.87,81.73c-0.73,0.73-1.92,0.74-2.65,0.01h0c-0.73-0.73-0.74-1.91-0.02-2.65l16.64-17.04
		c1.49-1.47,1.49-3.87,0.01-5.35l0,0c-1.48-1.48-3.89-1.47-5.36,0.02l-16.12,16.3c-0.89,0.9-2.34,0.9-3.23,0.01v0
		c-0.89-0.89-0.89-2.34,0.01-3.23l16.11-15.95c1.54-1.52,1.56-3.99,0.07-5.55l0,0c-1.53-1.59-4.08-1.62-5.64-0.05L67.46,64.51
		c-0.82,0.82-2.15,0.79-2.94-0.06l0,0c-0.74-0.81-0.71-2.05,0.07-2.82l16.27-16.07c1.58-1.53,1.65-4.05,0.15-5.67l0,0
		c-1.57-1.7-4.23-1.74-5.86-0.1l-15.96,16.1c-0.89,0.9-2.35,0.86-3.19-0.07v0c-0.81-0.89-0.75-2.26,0.12-3.08l16.2-15.3
		c1.68-1.59,1.75-4.25,0.14-5.92l0,0c-1.62-1.68-4.3-1.7-5.95-0.06L50.5,47.46c-0.82,0.82-2.16,0.79-2.95-0.06v0
		c-0.74-0.81-0.72-2.06,0.06-2.83l16.36-16.34c1.48-1.48,1.54-3.86,0.13-5.41v0c-1.5-1.65-4.08-1.72-5.66-0.15L40.98,40.01
		c-6.35,6.11-6.43,16.24-0.18,22.45l36.16,35.93C77.2,98.62,77.57,98.65,77.84,98.47z"/>
	<path class="st0" d="M104.25,124.14c0.82-1.14,2.14-3.19,2.75-5.26c0.11-0.37,0.39-0.67,0.74-0.83l8.07-3.73
		c0.39-0.18,0.83-0.17,1.21,0.02c3.53,1.81,21.93,11.1,32.42,13.79c0,0,22.37,6.36,25.66,15.63c0,0,3.75,7.66-3.52,16.24
		c0,0-8.2,10.65-19.46,8.81c0,0-5.52-0.69-10.19-5.29l-37.53-37.6C103.92,125.44,103.85,124.69,104.25,124.14z M158.13,143.41
		c-4.13,0-7.48,3.35-7.48,7.48s3.35,7.48,7.48,7.48s7.48-3.35,7.48-7.48S162.26,143.41,158.13,143.41z"/>
</g>
</svg>
