<?xml version="1.0" encoding="utf-8"?>
<!-- Generator: Adobe Illustrator 24.1.0, SVG Export Plug-In . SVG Version: 6.00 Build 0)  -->
<svg version="1.1" id="Layer_1" xmlns="http://www.w3.org/2000/svg" xmlns:xlink="http://www.w3.org/1999/xlink" x="0px" y="0px"
	 viewBox="0 0 200 200" style="enable-background:new 0 0 200 200;" xml:space="preserve">
<style type="text/css">
	.st0{fill:#FFFFFF;}
	.st1{fill:#428CCB;}
	.st2{fill:#FFFFFF;stroke:#FFFFFF;stroke-miterlimit:10;}
	.st3{fill:none;stroke:#F6F6F6;stroke-miterlimit:10;}
	.st4{fill:none;stroke:#FFFFFF;stroke-width:5;stroke-miterlimit:10;}
	.st5{fill:none;stroke:#FFFFFF;stroke-width:3;stroke-miterlimit:10;}
	.st6{fill:#F6F6F6;}
	.st7{fill:none;stroke:#428CCB;stroke-width:2;stroke-miterlimit:10;}
	.st8{fill:#F49823;}
	.st9{fill:none;stroke:#428CCB;stroke-miterlimit:10;}
	.st10{fill:none;stroke:#FFFFFF;stroke-width:6;stroke-miterlimit:10;}
	.st11{fill:none;}
	.st12{fill:#FEFEFE;}
	.st13{fill:#656565;}
	.st14{fill:#F8B81E;}
	.st15{fill:none;stroke:#000000;stroke-miterlimit:10;}
	.st16{fill:none;stroke:#FFFFFF;stroke-miterlimit:10;}
	.st17{fill:none;stroke:#FFFFFF;stroke-width:2;stroke-miterlimit:10;}
	.st18{fill:none;stroke:#000000;stroke-width:3;stroke-miterlimit:10;}
</style>
<g>
	<path class="st0" d="M54.97,81.54h85.81c8.35,0,15.39,6.6,16.4,15.37l1.17,10.18c0.18,1.52-0.12,3.06-0.82,4.4
		c-3.8,7.19-18.75,29.01-60.72,29.88c0,0-31.99,1.11-57.41-29.45c-1.24-1.49-1.85-3.46-1.67-5.43l0.79-9.08
		C39.31,88.42,46.44,81.54,54.97,81.54z M98.05,117.29c-4.65,0-8.42,3.77-8.42,8.42s3.77,8.42,8.42,8.42c4.65,0,8.42-3.77,8.42-8.42
		S102.7,117.29,98.05,117.29z"/>
	<path class="st0" d="M134.25,77.83h12.84c0,0-1.12-5.86-6.42-5.86S134.25,77.83,134.25,77.83z"/>
	<path class="st0" d="M49.31,77.83h12.84c0,0-1.12-5.86-6.42-5.86S49.31,77.83,49.31,77.83z"/>
	<g>
		<path class="st0" d="M138.46,68.88c-0.15-1.45-4.11-35.53-40.41-35.53c-36.28,0-39.97,34.06-40.1,35.51l-4.44-0.42
			c0.04-0.4,4.16-39.55,44.54-39.55c40.36,0,44.8,39.13,44.84,39.53L138.46,68.88z"/>
	</g>
	<path class="st0" d="M36.79,120.73c0.14-1.65,2.19-2.35,3.3-1.11c7.08,7.97,27.03,26.54,59.35,26.54
		c32.51,0,52.19-18.14,59.02-25.75c1.08-1.21,3.08-0.59,3.29,1.02l3.2,32.26c1.2,9.23-5.99,17.42-15.3,17.42H49.36
		c-9.03,0-16.12-7.71-15.37-16.71L36.79,120.73z"/>
</g>
</svg>
