<svg id="Layer_1" data-name="Layer 1" xmlns="http://www.w3.org/2000/svg" viewBox="0 0 200 200">
    <defs>
        <style>.cls-1{fill:#428ccb;}.cls-2{fill:#fff;}</style>
    </defs>
    <path class="cls-2"
          d="M179.45,100.12c8.21-22.91,1.77-40.84-4.38-51.23A44.42,44.42,0,0,0,154.54,30.5C127.67,19,100,38.9,100,38.9S72.33,19,45.46,30.5A44.42,44.42,0,0,0,24.93,48.89c-6.15,10.39-12.59,28.32-4.38,51.23l30.92-.1L69.24,60a6.21,6.21,0,0,1,5.68-3.72h0a6.23,6.23,0,0,1,6,4.54l11.68,40.63,4.15-7.52c1.33-2.17,3.43-4.34,6-4.31h0a7.1,7.1,0,0,1,4.44,1.68,9.49,9.49,0,0,1,2.1,2.53l4,6.6,12.15-16.47a8.45,8.45,0,0,1,6.75-3.36h0a8.37,8.37,0,0,1,7,4.3L149,101.32l1.29-.77a3.12,3.12,0,0,1,1.57-.43Z"/>
    <path class="cls-2"
          d="M174.25,112.5a105,105,0,0,1-8.61,13.18s-26.56,33.43-63.31,48.93a6,6,0,0,1-4.66,0c-36.75-15.5-63.31-48.93-63.31-48.93a105,105,0,0,1-8.61-13.18H57.59a3.22,3.22,0,0,0,3-2L72.74,81l10.69,40.5a6.87,6.87,0,0,0,6.85,5.1h0a6.87,6.87,0,0,0,5.87-3.67l7.93-14.78,2.08,4a8.34,8.34,0,0,0,7.15,4h0a8.34,8.34,0,0,0,6.58-3.22l11.78-16,9.79,17a8,8,0,0,0,6.86,3.87h0a5.92,5.92,0,0,0,2.78-.71,9.75,9.75,0,0,0,3.5-2.88l1.33-1.71Z"/>
    <path class="cls-2" d="M130.16,90.46h0Z"/>
    <path class="cls-2" d="M78,66.16h0Z"/>
</svg>