<?xml version="1.0" encoding="utf-8"?>
<!-- Generator: Adobe Illustrator 24.1.0, SVG Export Plug-In . SVG Version: 6.00 Build 0)  -->
<svg version="1.1" id="Layer_1" xmlns="http://www.w3.org/2000/svg" xmlns:xlink="http://www.w3.org/1999/xlink" x="0px" y="0px"
	 viewBox="0 0 200 200" style="enable-background:new 0 0 200 200;" xml:space="preserve">
<style type="text/css">
	.st0{fill:#FFFFFF;}
	.st1{fill:#428CCB;}
	.st2{fill:#FFFFFF;stroke:#FFFFFF;stroke-miterlimit:10;}
	.st3{fill:none;stroke:#F6F6F6;stroke-miterlimit:10;}
	.st4{fill:none;stroke:#FFFFFF;stroke-width:5;stroke-miterlimit:10;}
	.st5{fill:none;stroke:#FFFFFF;stroke-width:3;stroke-miterlimit:10;}
	.st6{fill:#F6F6F6;}
	.st7{fill:none;stroke:#428CCB;stroke-width:2;stroke-miterlimit:10;}
	.st8{fill:#F49823;}
	.st9{fill:none;stroke:#428CCB;stroke-miterlimit:10;}
	.st10{fill:none;stroke:#FFFFFF;stroke-width:6;stroke-miterlimit:10;}
	.st11{fill:none;}
	.st12{fill:#FEFEFE;}
	.st13{fill:#656565;}
	.st14{fill:#F8B81E;}
	.st15{fill:none;stroke:#000000;stroke-miterlimit:10;}
	.st16{clip-path:url(#SVGID_2_);}
	.st17{clip-path:url(#SVGID_4_);}
	.st18{fill:none;stroke:#FFFFFF;stroke-miterlimit:10;}
	.st19{fill:none;stroke:#FFFFFF;stroke-width:2;stroke-miterlimit:10;}
</style>
<g>
	<path class="st0" d="M77.01,53.47c0.66,1.16,2.13,1.56,3.29,0.9l0,0c1.16-0.66,1.56-2.13,0.9-3.29l-0.12-0.22l-0.06-0.1
		c-0.44-0.7-1.62-2.56,0.71-4.69c1.5-1.37,2.48-3.07,2.83-4.93c0.76-4.07-1.58-6.4-1.85-6.66c-0.91-0.75-2.25-0.62-2.99,0.29
		l-0.56,0.69c-0.63,0.77-0.52,1.91,0.25,2.54c0.16,0.2,0.66,0.95,0.42,2.25c-0.19,1.03-0.83,1.79-1.34,2.25
		c-3.32,3.02-3.91,7.05-1.57,10.79L77.01,53.47z"/>
	<path class="st0" d="M89.52,53.47c0.66,1.16,2.13,1.56,3.29,0.9c1.16-0.66,1.56-2.13,0.9-3.29l-0.12-0.22l-0.06-0.1
		c-0.44-0.7-1.62-2.56,0.71-4.69c1.5-1.37,2.48-3.07,2.83-4.93c0.76-4.07-1.58-6.4-1.85-6.66c-0.91-0.75-2.25-0.62-2.99,0.29
		l-0.56,0.69c-0.63,0.77-0.52,1.91,0.25,2.54c0.16,0.2,0.66,0.95,0.42,2.25c-0.19,1.03-0.83,1.79-1.34,2.25
		c-3.32,3.02-3.91,7.05-1.57,10.79L89.52,53.47z"/>
	<path class="st0" d="M102.62,53.47c0.66,1.16,2.13,1.56,3.29,0.9c1.16-0.66,1.56-2.13,0.9-3.29l-0.12-0.22l-0.06-0.1
		c-0.44-0.7-1.62-2.56,0.71-4.69c1.5-1.37,2.48-3.07,2.83-4.93c0.76-4.07-1.58-6.4-1.85-6.66c-0.91-0.75-2.25-0.62-2.99,0.29
		l-0.56,0.69c-0.63,0.77-0.52,1.91,0.25,2.54c0.16,0.2,0.66,0.95,0.42,2.25c-0.19,1.03-0.83,1.79-1.34,2.25
		c-3.32,3.02-3.91,7.05-1.57,10.79L102.62,53.47z"/>
	<path class="st0" d="M171.5,56.93h-19.03c-1.59,0-2.88,1.29-2.88,2.88v10.78h-11.07v-3.52c0-2.55-2.07-4.61-4.61-4.61
		c-2.55,0-4.61,2.07-4.61,4.61v3.52h-11.53v-3.52c0-2.55-2.07-4.61-4.61-4.61l0,0c-2.55,0-4.61,2.07-4.61,4.61v3.52h-11.3v-3.52
		c0-2.55-2.07-4.61-4.61-4.61c-2.55,0-4.61,2.07-4.61,4.61v3.52H76.47v-3.52c0-2.55-2.07-4.61-4.61-4.61
		c-2.55,0-4.61,2.07-4.61,4.61v3.52H55.71v-3.52c0-2.55-2.07-4.61-4.61-4.61c-2.55,0-4.61,2.07-4.61,4.61v3.52H35.88V59.12
		c0-1.21-0.98-2.19-2.19-2.19h-7.5c-3.06,0-5.54,2.48-5.54,5.54v96.64c0,3.06,2.48,5.54,5.54,5.54h7.5c1.21,0,2.19-0.98,2.19-2.19
		v-10.42h10.61v3.38c0,2.55,2.07,4.61,4.61,4.61c2.55,0,4.61-2.07,4.61-4.61v-3.38h11.53v3.38c0,2.55,2.07,4.61,4.61,4.61
		c2.55,0,4.61-2.07,4.61-4.61v-3.38h11.53v3.38c0,2.55,2.07,4.61,4.61,4.61c2.55,0,4.61-2.07,4.61-4.61v-3.38h11.3v3.38
		c0,2.55,2.07,4.61,4.61,4.61l0,0c2.55,0,4.61-2.07,4.61-4.61v-3.38h11.53v3.38c0,2.55,2.07,4.61,4.61,4.61
		c2.55,0,4.61-2.07,4.61-4.61v-3.38h11.07v9.72c0,1.59,1.29,2.88,2.88,2.88h19.03c4.33,0,7.84-3.51,7.84-7.84V64.77
		C179.34,60.44,175.83,56.93,171.5,56.93z M35.88,147.07V75.56h10.61v71.51H35.88z M55.71,147.07V75.56h11.53v71.51H55.71z
		 M76.47,147.07V75.56h11.53v71.51H76.47z M97.23,147.07V75.56h11.3v71.51H97.23z M117.76,147.07V75.56h11.53v71.51H117.76z
		 M138.52,147.07V75.56h11.07v71.51H138.52z M159.51,157.45c-1.24,0-2.24-1-2.24-2.24c0-1.24,1-2.24,2.24-2.24
		c1.24,0,2.24,1,2.24,2.24C161.75,156.45,160.74,157.45,159.51,157.45z M159.51,147.07c-1.24,0-2.24-1-2.24-2.24
		c0-1.24,1-2.24,2.24-2.24c1.24,0,2.24,1,2.24,2.24C161.75,146.06,160.74,147.07,159.51,147.07z M159.51,136.68
		c-1.24,0-2.24-1-2.24-2.24c0-1.24,1-2.24,2.24-2.24c1.24,0,2.24,1,2.24,2.24C161.75,135.68,160.74,136.68,159.51,136.68z
		 M169.97,157.45c-1.24,0-2.24-1-2.24-2.24c0-1.24,1-2.24,2.24-2.24c1.24,0,2.24,1,2.24,2.24
		C172.21,156.45,171.21,157.45,169.97,157.45z M169.97,147.07c-1.24,0-2.24-1-2.24-2.24c0-1.24,1-2.24,2.24-2.24
		c1.24,0,2.24,1,2.24,2.24C172.21,146.06,171.21,147.07,169.97,147.07z M169.97,136.68c-1.24,0-2.24-1-2.24-2.24
		c0-1.24,1-2.24,2.24-2.24c1.24,0,2.24,1,2.24,2.24C172.21,135.68,171.21,136.68,169.97,136.68z M164.79,111.35
		c-4.19,0-7.6-3.41-7.6-7.6c0-4.19,3.41-7.6,7.6-7.6c4.19,0,7.6,3.41,7.6,7.6C172.39,107.94,168.98,111.35,164.79,111.35z
		 M164.79,90.64c-5.53,0-10.02-4.5-10.02-10.02c0-5.53,4.5-10.02,10.02-10.02s10.02,4.5,10.02,10.02
		C174.81,86.14,170.32,90.64,164.79,90.64z"/>
	<path class="st0" d="M164.79,74.45c-3.4,0-6.16,2.76-6.16,6.16c0,3.4,2.77,6.16,6.16,6.16c3.4,0,6.16-2.76,6.16-6.16
		C170.95,77.22,168.19,74.45,164.79,74.45z"/>
	<path class="st0" d="M164.79,100.01c-2.06,0-3.74,1.68-3.74,3.74c0,2.06,1.68,3.74,3.74,3.74s3.74-1.68,3.74-3.74
		C168.53,101.69,166.85,100.01,164.79,100.01z"/>
</g>
</svg>
