<?xml version="1.0" encoding="utf-8"?>
<!-- Generator: Adobe Illustrator 24.1.0, SVG Export Plug-In . SVG Version: 6.00 Build 0)  -->
<svg version="1.1" id="Layer_1" xmlns="http://www.w3.org/2000/svg" xmlns:xlink="http://www.w3.org/1999/xlink" x="0px" y="0px"
	 viewBox="0 0 200 200" style="enable-background:new 0 0 200 200;" xml:space="preserve">
<style type="text/css">
	.st0{fill:#FFFFFF;}
	.st1{fill:#428CCB;}
	.st2{fill:#FFFFFF;stroke:#FFFFFF;stroke-miterlimit:10;}
	.st3{fill:none;stroke:#F6F6F6;stroke-miterlimit:10;}
	.st4{fill:none;stroke:#FFFFFF;stroke-width:5;stroke-miterlimit:10;}
	.st5{fill:none;stroke:#FFFFFF;stroke-width:3;stroke-miterlimit:10;}
	.st6{fill:#F6F6F6;}
	.st7{fill:none;stroke:#428CCB;stroke-width:2;stroke-miterlimit:10;}
	.st8{fill:#F49823;}
	.st9{fill:none;stroke:#428CCB;stroke-miterlimit:10;}
	.st10{fill:none;stroke:#FFFFFF;stroke-width:6;stroke-miterlimit:10;}
	.st11{fill:none;}
	.st12{fill:#FEFEFE;}
	.st13{fill:#656565;}
	.st14{fill:#F8B81E;}
	.st15{fill:none;stroke:#000000;stroke-miterlimit:10;}
	.st16{fill:none;stroke:#FFFFFF;stroke-miterlimit:10;}
	.st17{fill:none;stroke:#FFFFFF;stroke-width:2;stroke-miterlimit:10;}
	.st18{fill:none;stroke:#000000;stroke-width:3;stroke-miterlimit:10;}
</style>
<g>
	<g>
		<path class="st0" d="M59.8,110.6H13.78c-0.53,0-0.97-0.43-0.97-0.97v-3.9c0-0.53,0.43-0.97,0.97-0.97h43.41
			c0.28,0,0.54-0.12,0.72-0.32l41.32-46.11c0.38-0.42,1.04-0.43,1.42-0.02l41.65,44.07c0.18,0.19,0.44,0.3,0.7,0.3h43.21
			c0.53,0,0.97,0.43,0.97,0.97v3.9c0,0.53-0.43,0.97-0.97,0.97H140.5c-0.27,0-0.52-0.11-0.7-0.3l-39.02-41.29
			c-0.39-0.41-1.05-0.4-1.42,0.02l-38.84,43.33C60.33,110.48,60.07,110.6,59.8,110.6z"/>
	</g>
	<g>
		<path class="st0" d="M88.56,62.13L56.33,98.3c-0.19,0.21-0.46,0.33-0.74,0.33H24.21c-0.85,0-1.31-1-0.75-1.65L55,60.81
			c0.19-0.22,0.46-0.34,0.75-0.34h32.07C88.68,60.47,89.13,61.49,88.56,62.13z"/>
	</g>
	<g>
		<path class="st0" d="M111.65,62.14l33.48,36.17c0.19,0.2,0.45,0.32,0.73,0.32h31.39c0.85,0,1.31-1,0.75-1.65l-31.54-36.17
			c-0.19-0.22-0.46-0.34-0.75-0.34h-33.33C111.51,60.47,111.06,61.5,111.65,62.14z"/>
	</g>
	<g>
		<path class="st0" d="M143.18,57.27h-16.23c-0.46,0-0.84-0.38-0.84-0.84V44.36c0-0.46,0.38-0.84,0.84-0.84h16.23
			c0.46,0,0.84,0.38,0.84,0.84v12.07C144.03,56.89,143.65,57.27,143.18,57.27z"/>
	</g>
	<g>
		<path class="st0" d="M25.59,116.42h39.66c0.33,0,0.65-0.14,0.86-0.4l33.06-38.71c0.44-0.51,1.23-0.53,1.69-0.04l34.27,36.69
			c0.21,0.23,0.51,0.36,0.83,0.36h38.44c0.62,0,1.13,0.51,1.13,1.13v39.89c0,0.62-0.51,1.13-1.13,1.13h-60.34
			c-0.62,0-1.13-0.51-1.13-1.13v-28.2c0-0.62-0.51-1.13-1.13-1.13H86.94c-0.62,0-1.13,0.51-1.13,1.13v28.2
			c0,0.62-0.51,1.13-1.13,1.13H25.59c-0.62,0-1.13-0.51-1.13-1.13v-37.8C24.46,116.92,24.97,116.42,25.59,116.42z M153.65,125.51
			h-15.4c-0.62,0-1.13,0.51-1.13,1.13v15.4c0,0.62,0.51,1.13,1.13,1.13h15.4c0.62,0,1.13-0.51,1.13-1.13v-15.4
			C154.78,126.02,154.27,125.51,153.65,125.51z M64.38,125.51h-15.4c-0.62,0-1.13,0.51-1.13,1.13v15.4c0,0.62,0.51,1.13,1.13,1.13
			h15.4c0.62,0,1.13-0.51,1.13-1.13v-15.4C65.51,126.02,65.01,125.51,64.38,125.51z M107.87,94.36h-15.4
			c-0.62,0-1.13,0.51-1.13,1.13v15.4c0,0.62,0.51,1.13,1.13,1.13h15.4c0.62,0,1.13-0.51,1.13-1.13v-15.4
			C109,94.87,108.49,94.36,107.87,94.36z"/>
	</g>
</g>
</svg>
