<?xml version="1.0" encoding="utf-8"?>
<!-- Generator: Adobe Illustrator 24.1.0, SVG Export Plug-In . SVG Version: 6.00 Build 0)  -->
<svg version="1.1" id="Layer_1" xmlns="http://www.w3.org/2000/svg" xmlns:xlink="http://www.w3.org/1999/xlink" x="0px" y="0px"
	 viewBox="0 0 200 200" style="enable-background:new 0 0 200 200;" xml:space="preserve">
<style type="text/css">
	.st0{fill:#FFFFFF;}
	.st1{fill:#428CCB;}
	.st2{fill:#FFFFFF;stroke:#FFFFFF;stroke-miterlimit:10;}
	.st3{fill:none;stroke:#F6F6F6;stroke-miterlimit:10;}
	.st4{fill:none;stroke:#FFFFFF;stroke-width:5;stroke-miterlimit:10;}
	.st5{fill:none;stroke:#FFFFFF;stroke-width:3;stroke-miterlimit:10;}
	.st6{fill:#F6F6F6;}
	.st7{fill:none;stroke:#428CCB;stroke-width:2;stroke-miterlimit:10;}
	.st8{fill:#F49823;}
	.st9{fill:none;stroke:#428CCB;stroke-miterlimit:10;}
	.st10{fill:none;stroke:#FFFFFF;stroke-width:6;stroke-miterlimit:10;}
	.st11{fill:none;}
	.st12{fill:#FEFEFE;}
	.st13{fill:#656565;}
	.st14{fill:#F8B81E;}
	.st15{fill:none;stroke:#000000;stroke-miterlimit:10;}
</style>
<g>
	<path class="st0" d="M46.71,90.68H32.52c-0.67,0-1.27,0.25-1.75,0.65V73.48H17.65v54.15h13.13V106.7c0.03-2.5,2.06-4.51,4.56-4.51
		h6.27c2.33,0,4.22,1.89,4.22,4.22v21.23H58.5v-25.16C58.5,95.95,53.22,90.68,46.71,90.68z"/>
	<path class="st0" d="M68.01,90.88h12.91v21.36c0,2.27,1.84,4.12,4.12,4.12h6.76c2.27,0,4.12-1.84,4.12-4.12V90.88h12.91v23.66
		c0,7.23-5.86,13.09-13.09,13.09H81.1c-7.23,0-13.09-5.86-13.09-13.09V90.88z"/>
	<path class="st0" d="M141.53,90.88h12.91v21.36c0,2.27,1.84,4.12,4.12,4.12h6.76c2.27,0,4.12-1.84,4.12-4.12V90.88h12.91v23.66
		c0,7.23-5.86,13.09-13.09,13.09h-14.64c-7.23,0-13.09-5.86-13.09-13.09V90.88z"/>
	<rect x="118.56" y="72.37" class="st0" width="13.42" height="55.06"/>
</g>
</svg>
