<?xml version="1.0" encoding="utf-8"?>
<!-- Generator: Adobe Illustrator 24.1.0, SVG Export Plug-In . SVG Version: 6.00 Build 0)  -->
<svg version="1.1" id="Layer_1" xmlns="http://www.w3.org/2000/svg" xmlns:xlink="http://www.w3.org/1999/xlink" x="0px" y="0px"
	 viewBox="0 0 200 200" style="enable-background:new 0 0 200 200;" xml:space="preserve">
<style type="text/css">
	.st0{fill:#FFFFFF;}
</style>
<g>
	<circle class="st0" cx="101.44" cy="153.2" r="17.24"/>
	<g>
		<path class="st0" d="M127.92,117.51c-2.34,2.54-6.2,2.94-9,0.93c-8.43-6.06-17.07-7.71-25.77-4.9c-3.81,1.23-7.03,3.13-9.37,4.8
			c-2.65,1.89-6.26,1.67-8.64-0.55l0,0c-3.18-2.96-2.82-8.08,0.72-10.6c3.16-2.25,7.4-4.74,12.45-6.46
			c9.47-3.22,23.43-4.35,38.6,6.59c3.32,2.4,3.8,7.17,1.02,10.18L127.92,117.51z"/>
	</g>
	<g>
		<path class="st0" d="M148.37,92.92c-2.38,2.76-6.48,3.13-9.38,0.93c-18.56-14.09-37.67-18.06-56.9-11.81
			c-9.57,3.12-16.97,8.08-21.35,11.54c-2.68,2.12-6.51,1.94-8.98-0.42l0,0c-3-2.87-2.77-7.74,0.49-10.31
			c5.37-4.24,14.21-10.12,25.6-13.83c16.64-5.42,41.79-7.05,69.47,13.97C150.48,85.38,150.95,89.93,148.37,92.92L148.37,92.92z"/>
	</g>
	<g>
		<path class="st0" d="M30.3,62.91l-0.01-0.01c-2.59-3.09-1.97-7.74,1.35-10.03c7.6-5.23,21.93-13.82,40.4-19
			c24.31-6.83,60.29-8.74,96.56,18.96c3.13,2.39,3.64,6.9,1.09,9.9l-0.01,0.01c-2.36,2.77-6.48,3.21-9.37,0.99
			c-25.64-19.63-54.06-25.24-84.57-16.67C59.1,51.72,46.12,59.54,39.43,64.14C36.52,66.14,32.57,65.62,30.3,62.91z"/>
	</g>
</g>
</svg>
