<?xml version="1.0" encoding="utf-8"?>
<!-- Generator: Adobe Illustrator 24.1.0, SVG Export Plug-In . SVG Version: 6.00 Build 0)  -->
<svg version="1.1" id="Layer_1" xmlns="http://www.w3.org/2000/svg" xmlns:xlink="http://www.w3.org/1999/xlink" x="0px" y="0px"
	 viewBox="0 0 200 200" style="enable-background:new 0 0 200 200;" xml:space="preserve">
<style type="text/css">
	.st0{fill:#FFFFFF;}
</style>
<g>
	<path class="st0" d="M135.21,46.29l9.73,2.26c0.26,0.06,0.45,0.3,0.45,0.57v1c0,0.27,0.17,0.51,0.43,0.59l21.88,6.9
		c0.53,0.17,0.83,0.71,0.69,1.25l-1.62,6.33c-0.14,0.56-0.72,0.9-1.28,0.75l-23.56-6.36c-0.15-0.04-0.31,0.07-0.31,0.23l0,0.27
		c-0.01,0.49-0.4,0.88-0.89,0.89c-1.79,0.03-5.73-0.42-6.24-4.8v-9.31C134.5,46.48,134.85,46.21,135.21,46.29z"/>
	<path class="st0" d="M64.79,46.29l-9.73,2.26c-0.26,0.06-0.45,0.3-0.45,0.57v1c0,0.27-0.17,0.51-0.43,0.59l-21.88,6.9
		c-0.53,0.17-0.83,0.71-0.69,1.25l1.62,6.33c0.14,0.56,0.72,0.9,1.28,0.75l23.56-6.36c0.15-0.04,0.31,0.07,0.31,0.23l0,0.27
		c0.01,0.49,0.4,0.88,0.89,0.89c1.79,0.03,5.73-0.42,6.24-4.8v-9.31C65.5,46.48,65.15,46.21,64.79,46.29z"/>
	<path class="st0" d="M84.84,100.68h-9.32c-0.73,0-1.32,0.59-1.32,1.32v7.31c0,0.73,0.59,1.32,1.32,1.32h1.54v34.76
		c0,0.82,0.67,1.49,1.49,1.49h3.27c0.82,0,1.49-0.67,1.49-1.49v-34.76h1.54c0.73,0,1.32-0.59,1.32-1.32V102
		C86.16,101.27,85.57,100.68,84.84,100.68z"/>
	<path class="st0" d="M124.51,100.68h-9.32c-0.73,0-1.32,0.59-1.32,1.32v7.31c0,0.73,0.59,1.32,1.32,1.32h1.54v34.76
		c0,0.82,0.67,1.49,1.49,1.49h3.27c0.82,0,1.49-0.67,1.49-1.49v-34.76h1.54c0.73,0,1.32-0.59,1.32-1.32V102
		C125.83,101.27,125.23,100.68,124.51,100.68z"/>
	<path class="st0" d="M102.12,178.61h-3.99c-5.95,0-10.77-4.82-10.77-10.77v-49.73c0-5.95,4.82-10.77,10.77-10.77h3.99
		c5.95,0,10.77,4.82,10.77,10.77v49.73C112.89,173.79,108.06,178.61,102.12,178.61z"/>
	<path class="st0" d="M75.73,46.78c4.17,2.97,26.88,17.51,50.04,0.09c0.48-0.36,1.11-0.47,1.68-0.27l2.97,1.04
		c0.72,0.25,1.2,0.93,1.2,1.69v11.24c0,0.72,0.38,1.39,1.01,1.76l5.67,3.35c0.88,0.52,1.43,1.44,1.48,2.46
		c0.15,3.49,0.44,12.26,0.19,23.41c-0.15,6.9-0.82,13.79-2.09,20.58c-0.97,5.13-2.29,10.36-3.91,12.4
		c-0.21,0.26-0.53,0.41-0.87,0.41l-3.61,0c-0.68,0-1.2-0.59-1.11-1.26c0.61-4.64,2.71-20.76,3.09-26.06
		c0.05-0.68-0.33-1.31-0.95-1.6c-1.98-0.9-7.13-2.63-17.54-2.79l-11.2-6.76c-0.89-0.54-2-0.56-2.92-0.06l-11.47,6.3
		c0,0-10.1,0.71-14.89,1.92c-1.42,0.36-2.38,1.67-2.32,3.13l1.18,25.25c0.04,0.82-0.62,1.51-1.44,1.51l-1.81,0
		c-0.62,0-1.17-0.39-1.37-0.98c-1.06-3.14-4.24-13.58-5.36-28.44c0,0-1.76-16.45-0.81-27.33c0.1-1.1,0.8-2.06,1.82-2.49l5.94-3.03
		c0.69-0.35,1.13-1.07,1.12-1.85l-0.17-11.07c-0.01-0.81,0.52-1.52,1.29-1.75l3.64-1.05C74.73,46.37,75.29,46.46,75.73,46.78z
		 M119.34,73.01v-2.46c0-4.25-3.45-7.7-7.7-7.7h-21.7c-4.25,0-7.7,3.45-7.7,7.7v2.46c0,4.25,3.45,7.7,7.7,7.7h21.7
		C115.9,80.7,119.34,77.26,119.34,73.01z"/>
	<path class="st0" d="M75.73,42.25c4.77,3.8,26.51,18.91,49.99,0.02c0.62-0.5,0.83-1.35,0.54-2.09
		c-1.77-4.41-8.88-18.78-26.07-18.78c-17.26,0-23.54,14.48-25.03,18.83C74.89,40.96,75.12,41.77,75.73,42.25z"/>
</g>
</svg>
