<?xml version="1.0" encoding="utf-8"?>
<!-- Generator: Adobe Illustrator 24.1.0, SVG Export Plug-In . SVG Version: 6.00 Build 0)  -->
<svg version="1.1" id="Layer_1" xmlns="http://www.w3.org/2000/svg" xmlns:xlink="http://www.w3.org/1999/xlink" x="0px" y="0px"
	 viewBox="0 0 200 200" style="enable-background:new 0 0 200 200;" xml:space="preserve">
<style type="text/css">
	.st0{fill:#FFFFFF;}
	.st1{fill:#428CCB;}
	.st2{fill:#FFFFFF;stroke:#FFFFFF;stroke-miterlimit:10;}
	.st3{fill:none;stroke:#F6F6F6;stroke-miterlimit:10;}
	.st4{fill:none;stroke:#FFFFFF;stroke-width:5;stroke-miterlimit:10;}
	.st5{fill:none;stroke:#FFFFFF;stroke-width:3;stroke-miterlimit:10;}
	.st6{fill:#F6F6F6;}
	.st7{fill:none;stroke:#428CCB;stroke-width:2;stroke-miterlimit:10;}
	.st8{fill:#F49823;}
	.st9{fill:none;stroke:#428CCB;stroke-miterlimit:10;}
	.st10{fill:none;stroke:#FFFFFF;stroke-width:6;stroke-miterlimit:10;}
	.st11{fill:none;}
	.st12{fill:#FEFEFE;}
	.st13{fill:#656565;}
	.st14{fill:#F8B81E;}
	.st15{fill:none;stroke:#000000;stroke-miterlimit:10;}
	.st16{clip-path:url(#SVGID_2_);}
	.st17{clip-path:url(#SVGID_4_);}
	.st18{fill:none;stroke:#FFFFFF;stroke-miterlimit:10;}
	.st19{fill:none;stroke:#FFFFFF;stroke-width:2;stroke-miterlimit:10;}
</style>
<g>
	<path class="st0" d="M149.17,99.04c0,36.44-29.54,65.98-65.98,65.98S17.2,135.48,17.2,99.04s29.54-65.98,65.98-65.98
		S149.17,62.6,149.17,99.04z M97.3,43.67c-8.79,0-15.91,7.12-15.91,15.91s7.12,15.91,15.91,15.91s15.91-7.12,15.91-15.91
		S106.09,43.67,97.3,43.67z M124.36,75.49c-8.79,0-15.91,7.12-15.91,15.91s7.12,15.91,15.91,15.91s15.91-7.12,15.91-15.91
		S133.15,75.49,124.36,75.49z M109.92,115.13c-8.79,0-15.91,7.12-15.91,15.91s7.12,15.91,15.91,15.91s15.91-7.12,15.91-15.91
		S118.71,115.13,109.92,115.13z M68.87,122.68c-8.79,0-15.91,7.12-15.91,15.91c0,8.79,7.12,15.91,15.91,15.91
		s15.91-7.12,15.91-15.91C84.79,129.81,77.66,122.68,68.87,122.68z M42.05,90.86c-8.79,0-15.91,7.12-15.91,15.91
		s7.12,15.91,15.91,15.91s15.91-7.12,15.91-15.91S50.84,90.86,42.05,90.86z M55.61,51.52c-8.79,0-15.91,7.12-15.91,15.91
		s7.12,15.91,15.91,15.91s15.91-7.12,15.91-15.91S64.4,51.52,55.61,51.52z M97.14,99.25c0-7.81-6.35-14.16-14.16-14.16
		s-14.16,6.35-14.16,14.16s6.35,14.16,14.16,14.16S97.14,107.05,97.14,99.25z M93.31,99.25c0,5.7-4.63,10.33-10.33,10.33
		s-10.33-4.63-10.33-10.33s4.63-10.33,10.33-10.33S93.31,93.55,93.31,99.25z"/>
	<path class="st0" d="M123.07,156.28c1.36-0.97,5.58-4.04,8.13-6.47c0.35-0.34,0.94-0.12,0.98,0.36c0.28,3.04,1.66,10.52,8.54,12.15
		c3.29,0.78,6.75-0.17,9.34-2.34c3.15-2.64,7.27-7.61,7.34-15.6c0.11-12.97-2.4-27.36,3.05-34.01c5.35-6.53,10.28-6.73,19.44-7.47
		c0.29-0.02,0.56,0.17,0.62,0.45l2.27,10.02c0.1,0.44-0.31,0.82-0.74,0.69c-3.25-1.03-13.67-3.38-16.71,7.6
		c-0.54,1.95-0.72,3.97-0.61,5.99c0.24,4.69,0.33,18.17-5.79,27.31c-7.45,11.13-25.51,19.26-36.02,2.1
		C122.76,156.8,122.83,156.46,123.07,156.28z"/>
</g>
</svg>
