<?xml version="1.0" encoding="utf-8"?>
<!-- Generator: Adobe Illustrator 24.1.0, SVG Export Plug-In . SVG Version: 6.00 Build 0)  -->
<svg version="1.1" id="Layer_1" xmlns="http://www.w3.org/2000/svg" xmlns:xlink="http://www.w3.org/1999/xlink" x="0px" y="0px"
	 viewBox="0 0 200 200" style="enable-background:new 0 0 200 200;" xml:space="preserve">
<style type="text/css">
	.st0{fill:#FFFFFF;}
	.st1{fill:#428CCB;}
	.st2{fill:#FFFFFF;stroke:#FFFFFF;stroke-miterlimit:10;}
	.st3{fill:none;stroke:#F6F6F6;stroke-miterlimit:10;}
	.st4{fill:none;stroke:#FFFFFF;stroke-width:5;stroke-miterlimit:10;}
	.st5{fill:none;stroke:#FFFFFF;stroke-width:3;stroke-miterlimit:10;}
	.st6{fill:#F6F6F6;}
	.st7{fill:none;stroke:#428CCB;stroke-width:2;stroke-miterlimit:10;}
	.st8{fill:#F49823;}
	.st9{fill:none;stroke:#428CCB;stroke-miterlimit:10;}
	.st10{fill:none;stroke:#FFFFFF;stroke-width:6;stroke-miterlimit:10;}
	.st11{fill:none;}
	.st12{fill:#FEFEFE;}
	.st13{fill:#656565;}
	.st14{fill:#F8B81E;}
	.st15{fill:none;stroke:#000000;stroke-miterlimit:10;}
	.st16{clip-path:url(#SVGID_2_);}
	.st17{clip-path:url(#SVGID_4_);}
	.st18{fill:none;stroke:#FFFFFF;stroke-miterlimit:10;}
	.st19{fill:none;stroke:#FFFFFF;stroke-width:2;stroke-miterlimit:10;}
</style>
<path class="st0" d="M163.39,28.22l-12.3-8.58c-1.22-0.85-2.89-0.61-3.82,0.55l-4.28,5.33l-1.99-1.5c-1.01-0.76-2.43-0.56-3.19,0.45
	s-0.56,2.43,0.45,3.19l1.87,1.41l-3.17,3.94l-1.74-1.31c-1.01-0.76-2.43-0.56-3.19,0.45c-0.76,1.01-0.56,2.43,0.45,3.19l1.63,1.23
	l-3.86,4.8c-1.01,1.26-0.76,3.11,0.54,4.06l2.96,2.15l-29.89,42.34l-4.86-3.47c-3.62-2.58-8.19-3.61-12.5-2.54
	c-7.42,1.84-10.29,7.7-11.39,11.46c-0.42,1.44-0.54,2.95-0.56,4.45c-0.06,6.41-10.15,9.14-10.15,9.14
	c-31.55,8.77-30.5,31.27-27.71,42.62c1,4.05,3.37,7.62,6.69,10.14l20.24,15.4c3.97,3.02,9,4.3,13.93,3.53
	c38.34-6,33.02-44.33,33.02-44.33c-0.01-7.21,5.07-7.73,5.07-7.73c10.27-4.72,9.43-14.59,7.63-20.81c-0.96-3.32-3.07-6.18-5.88-8.19
	l-3.66-2.62l29.84-42.27l2.51,1.82c1.36,0.99,3.29,0.57,4.12-0.89l3.01-5.07l1.41,0.98c1.03,0.72,2.45,0.47,3.17-0.57
	c0.72-1.03,0.47-2.45-0.57-3.17l-1.68-1.17l2.43-4.1l1.97,1.37c1.03,0.72,2.45,0.47,3.17-0.57v0c0.72-1.03,0.47-2.45-0.57-3.17
	l-2.24-1.56l3.95-6.66C164.95,30.66,164.58,29.06,163.39,28.22z M79.42,154.59c-0.86,1.15-2.48,1.38-3.63,0.52l-15.6-11.68
	c-1.15-0.86-1.38-2.48-0.52-3.63c0.86-1.15,2.48-1.38,3.63-0.52l15.6,11.68C80.04,151.82,80.28,153.44,79.42,154.59z M86,141.18
	c-7.97,0.63-14.95-5.31-15.58-13.28c-0.63-7.97,5.31-14.95,13.28-15.58c7.97-0.63,14.95,5.31,15.58,13.28
	C99.92,133.57,93.97,140.55,86,141.18z"/>
</svg>
