<?xml version="1.0" encoding="utf-8"?>
<!-- Generator: Adobe Illustrator 24.1.0, SVG Export Plug-In . SVG Version: 6.00 Build 0)  -->
<svg version="1.1" id="Layer_1" xmlns="http://www.w3.org/2000/svg" xmlns:xlink="http://www.w3.org/1999/xlink" x="0px" y="0px"
	 viewBox="0 0 200 200" style="enable-background:new 0 0 200 200;" xml:space="preserve">
<style type="text/css">
	.st0{fill:#FFFFFF;}
</style>
<path class="st0" d="M130.53,178.47H69.47c-5.56,0-10.06-4.51-10.06-10.06V31.59c0-5.56,4.51-10.06,10.06-10.06h61.06
	c5.56,0,10.06,4.51,10.06,10.06v136.81C140.59,173.96,136.09,178.47,130.53,178.47z M132.8,45.93H67.2v107.83h65.6V45.93z
	 M100,161.47c-2.31,0-4.19,1.88-4.19,4.19s1.88,4.19,4.19,4.19s4.19-1.88,4.19-4.19S102.31,161.47,100,161.47z M109.76,33.94
	L109.76,33.94c0-0.71-0.57-1.28-1.28-1.28H91.52c-0.71,0-1.28,0.57-1.28,1.28v0c0,0.71,0.57,1.28,1.28,1.28h16.95
	C109.18,35.22,109.76,34.64,109.76,33.94z"/>
</svg>
