<?xml version="1.0" encoding="utf-8"?>
<!-- Generator: Adobe Illustrator 24.1.0, SVG Export Plug-In . SVG Version: 6.00 Build 0)  -->
<svg version="1.1" id="Layer_1" xmlns="http://www.w3.org/2000/svg" xmlns:xlink="http://www.w3.org/1999/xlink" x="0px" y="0px"
	 viewBox="0 0 200 200" style="enable-background:new 0 0 200 200;" xml:space="preserve">
<style type="text/css">
	.st0{fill:#FFFFFF;}
</style>
<g>
	<path class="st0" d="M148.18,85.29l3.26,11.97c0.12,0.43,0.66,0.57,0.97,0.25l5.23-5.29c1.44-1.4,1.46-3.7,0.06-5.14l-3.07-3.16
		c-1.26-1.29-3.28-1.47-4.74-0.41l-1.5,1.17C148.2,84.82,148.12,85.06,148.18,85.29z"/>
	<path class="st0" d="M155.6,111.24l3.26,11.97c0.12,0.43,0.66,0.57,0.97,0.25l5.23-5.29c1.44-1.4,1.46-3.7,0.06-5.14l-3.07-3.16
		c-1.26-1.29-3.28-1.47-4.74-0.41l-1.5,1.17C155.62,110.77,155.54,111.01,155.6,111.24z"/>
	<path class="st0" d="M117.68,56.42L39.99,33.89c-0.69-0.2-1.42,0.05-1.85,0.62l-1.22,1.61c-0.6,0.79-0.41,1.92,0.42,2.47
		l48.81,32.53c1.93,1.28,3.73,2.74,5.4,4.34l4.77,4.6c0.69,0.66,1.79,0.64,2.44-0.05l19.69-20.74
		C119.33,58.33,118.92,56.78,117.68,56.42z"/>
	<path class="st0" d="M145.41,83.98l21.79,77.9c0.19,0.69-0.06,1.42-0.63,1.85l-1.62,1.2c-0.8,0.59-1.93,0.39-2.47-0.44
		l-32.06-49.12c-1.27-1.94-2.7-3.76-4.29-5.44l-4.55-4.81c-0.66-0.69-0.62-1.79,0.08-2.44l20.93-19.49
		C143.52,82.3,145.06,82.73,145.41,83.98z"/>
	<path class="st0" d="M115.19,53.52L103.29,50c-0.43-0.13-0.56-0.67-0.23-0.97l5.41-5.11c1.43-1.4,3.73-1.38,5.14,0.05l3.09,3.14
		c1.27,1.29,1.4,3.31,0.31,4.75l-1.2,1.48C115.65,53.51,115.41,53.59,115.19,53.52z"/>
	<path class="st0" d="M89.41,45.54l-11.9-3.52c-0.43-0.13-0.56-0.67-0.23-0.97l5.41-5.11c1.43-1.4,3.73-1.38,5.14,0.05l3.09,3.14
		c1.27,1.29,1.4,3.31,0.31,4.75l-1.2,1.48C89.87,45.53,89.63,45.6,89.41,45.54z"/>
	<path class="st0" d="M81.62,105.65l54.66-59.38c0,0,21.41-22.84,35.01-20.44c2,0.35,3.63,1.88,4.06,3.86
		c0.94,4.4-1.04,14.06-19.78,33.57c0,0-42.17,43.75-56.88,54.37l-16.12,13.19c-1.45,1.19-2.94,2.32-4.48,3.4l-20.73,14.63
		c0,0-1.88,1.29-3.7,2.02c-1.78,0.71-3.61-0.8-3.28-2.69c0.23-1.3,0.88-2.99,2.5-4.83l11.19-16.49c1.92-2.82,4-5.53,6.23-8.12
		L81.62,105.65z"/>
	<path class="st0" d="M67.64,147.72l10.23-7.8c0.69-0.52,1.68-0.21,1.94,0.62l8.81,28.05c0.13,0.43,0.03,0.89-0.27,1.22l-3.82,4.13
		c-0.56,0.6-1.53,0.51-1.97-0.19l-15.22-24.39C67,148.83,67.13,148.11,67.64,147.72z"/>
	<path class="st0" d="M51.56,134.03l7.47-10.46c0.5-0.7,0.15-1.69-0.68-1.92l-28.31-7.94c-0.43-0.12-0.89,0-1.21,0.31l-4.01,3.95
		c-0.58,0.58-0.46,1.55,0.25,1.96l24.85,14.45C50.48,134.7,51.19,134.55,51.56,134.03z"/>
</g>
</svg>
