<?xml version="1.0" encoding="utf-8"?>
<!-- Generator: Adobe Illustrator 24.1.0, SVG Export Plug-In . SVG Version: 6.00 Build 0)  -->
<svg version="1.1" id="Layer_1" xmlns="http://www.w3.org/2000/svg" xmlns:xlink="http://www.w3.org/1999/xlink" x="0px" y="0px"
	 viewBox="0 0 200 200" style="enable-background:new 0 0 200 200;" xml:space="preserve">
<style type="text/css">
	.st0{fill:#FFFFFF;}
	.st1{fill:#428CCB;}
	.st2{fill:#FFFFFF;stroke:#FFFFFF;stroke-miterlimit:10;}
	.st3{fill:none;stroke:#F6F6F6;stroke-miterlimit:10;}
	.st4{fill:none;stroke:#FFFFFF;stroke-width:5;stroke-miterlimit:10;}
	.st5{fill:none;stroke:#FFFFFF;stroke-width:3;stroke-miterlimit:10;}
	.st6{fill:#F6F6F6;}
	.st7{fill:none;stroke:#428CCB;stroke-width:2;stroke-miterlimit:10;}
	.st8{fill:#F49823;}
	.st9{fill:none;stroke:#428CCB;stroke-miterlimit:10;}
	.st10{fill:none;stroke:#FFFFFF;stroke-width:6;stroke-miterlimit:10;}
	.st11{fill:none;}
	.st12{fill:#FEFEFE;}
	.st13{fill:#656565;}
	.st14{fill:#F8B81E;}
	.st15{fill:none;stroke:#000000;stroke-miterlimit:10;}
</style>
<g>
	<path class="st0" d="M80.66,152.35l24.34,7.66V65.19c0-3.27,3.14-5.63,6.29-4.72l0,0c2.52,0.73,4.25,3.04,4.25,5.67v40.79
		c0,0,17.81,10.7,25.85-7.04c1.25-2.75,1.98-5.7,2.32-8.71c0.93-8.26,0.88-26.52-15.65-35.77c-0.46-0.26-0.92-0.52-1.36-0.81
		c-1.8-1.16-8.37-4.92-22.35-8.43l-23.32-6.19L80.66,152.35z"/>
	<path class="st0" d="M74.46,108.42v15.5L42.09,135.5c-1.38,0.49-1.7,2.29-0.58,3.23h0c2.72,2.28,6.43,2.97,9.78,1.83l23.16-7.87
		v15.5c0,0-29.23,8.91-52.69-3.56c-1.8-0.95-3.31-2.4-4.19-4.24c-1.84-3.83-1.72-10.42,13.93-16.85L74.46,108.42z"/>
	<path class="st0" d="M112.35,120.43l17.56-5.12c16.5-4.81,34.19-3.34,49.66,4.12c0,0,0,0,0,0l0,0c6.61,4.01,3.36,12.46-2.75,15.48
		l-64.47,25.1v-17.69L159.43,126c2.16-0.75,2.26-2.21,0.23-3.25l0,0c-4.32-2.22-9.39-2.48-13.92-0.73l-33.4,11.91V120.43z"/>
</g>
</svg>
