<?xml version="1.0" encoding="utf-8"?>
<!-- Generator: Adobe Illustrator 24.1.0, SVG Export Plug-In . SVG Version: 6.00 Build 0)  -->
<svg version="1.1" id="Layer_1" xmlns="http://www.w3.org/2000/svg" xmlns:xlink="http://www.w3.org/1999/xlink" x="0px" y="0px"
	 viewBox="0 0 200 200" style="enable-background:new 0 0 200 200;" xml:space="preserve">
<style type="text/css">
	.st0{fill:#FFFFFF;}
	.st1{fill:#428CCB;}
	.st2{fill:#FFFFFF;stroke:#FFFFFF;stroke-miterlimit:10;}
	.st3{fill:none;stroke:#F6F6F6;stroke-miterlimit:10;}
	.st4{fill:none;stroke:#FFFFFF;stroke-width:5;stroke-miterlimit:10;}
	.st5{fill:none;stroke:#FFFFFF;stroke-width:3;stroke-miterlimit:10;}
	.st6{fill:#F6F6F6;}
	.st7{fill:none;stroke:#428CCB;stroke-width:2;stroke-miterlimit:10;}
	.st8{fill:#F49823;}
	.st9{fill:none;stroke:#428CCB;stroke-miterlimit:10;}
	.st10{fill:none;stroke:#FFFFFF;stroke-width:6;stroke-miterlimit:10;}
	.st11{fill:none;}
	.st12{fill:#FEFEFE;}
	.st13{fill:#656565;}
	.st14{fill:#F8B81E;}
	.st15{fill:none;stroke:#000000;stroke-miterlimit:10;}
	.st16{fill:none;stroke:#FFFFFF;stroke-miterlimit:10;}
	.st17{fill:none;stroke:#FFFFFF;stroke-width:2;stroke-miterlimit:10;}
	.st18{fill:none;stroke:#000000;stroke-width:3;stroke-miterlimit:10;}
</style>
<g>
	<path class="st0" d="M26.8,88.45c-0.68,0-1.24,0.55-1.24,1.24v3.4h0.01c0.14,6,5.03,10.81,11.06,10.81
		c6.03,0,10.93-4.82,11.06-10.81h2.96c0.14,6,5.03,10.81,11.06,10.81s10.93-4.82,11.06-10.81h2.93c0.14,6,5.03,10.81,11.06,10.81
		s10.93-4.82,11.06-10.81h2.8c0.14,6,5.03,10.81,11.06,10.81c6.03,0,10.93-4.82,11.06-10.81h2.94c0.14,6,5.03,10.81,11.06,10.81
		c6.03,0,10.93-4.82,11.06-10.81h3.19c0.14,6,5.03,10.81,11.06,10.81c6.03,0,10.93-4.82,11.06-10.81h0.01v-3.4
		c0-0.68-0.55-1.24-1.24-1.24H26.8z"/>
	<path class="st0" d="M40.19,41.16h117.38c0.52,0,0.98,0.33,1.14,0.82l13.91,41.4c0.26,0.78-0.32,1.59-1.14,1.59H26.24
		c-0.82,0-1.41-0.81-1.14-1.59l13.94-41.4C39.21,41.49,39.67,41.16,40.19,41.16z M45.27,81.93h3.76c0.55,0,1.03-0.38,1.17-0.91
		l8.67-34.55c0.19-0.76-0.38-1.5-1.17-1.5h-3.9c-0.55,0-1.04,0.38-1.17,0.92L44.1,80.44C43.91,81.2,44.49,81.93,45.27,81.93z
		 M69.73,81.93h4c0.6,0,1.1-0.43,1.19-1.02l5.26-34.55c0.11-0.73-0.45-1.39-1.19-1.39h-3.75c-0.59,0-1.1,0.43-1.19,1.02l-5.52,34.55
		C68.42,81.27,68.98,81.93,69.73,81.93z M144.68,44.97h-3.9c-0.78,0-1.36,0.74-1.17,1.5l8.67,34.55c0.13,0.54,0.62,0.91,1.17,0.91
		h3.76c0.78,0,1.36-0.73,1.17-1.49l-8.53-34.55C145.72,45.34,145.23,44.97,144.68,44.97z M123.24,44.97h-3.75
		c-0.74,0-1.3,0.66-1.19,1.39l5.26,34.55c0.09,0.59,0.6,1.02,1.19,1.02h4c0.74,0,1.31-0.66,1.19-1.4l-5.52-34.55
		C124.34,45.4,123.83,44.97,123.24,44.97z M96.96,81.93h3.67c0.67,0,1.21-0.54,1.21-1.21V46.17c0-0.67-0.54-1.21-1.21-1.21h-3.67
		c-0.67,0-1.21,0.54-1.21,1.21v34.55C95.76,81.39,96.3,81.93,96.96,81.93z"/>
	<path class="st0" d="M159.94,37.43H38.36c-0.38,0-0.69-0.31-0.69-0.69V31.9c0-0.38,0.31-0.69,0.69-0.69h121.58
		c0.38,0,0.69,0.31,0.69,0.69v4.84C160.63,37.12,160.32,37.43,159.94,37.43z"/>
	<path class="st0" d="M160.83,110.06v49.89h-6.08v-48.86c0-0.91-0.74-1.64-1.64-1.64H91.59c-0.91,0-1.64,0.74-1.64,1.64v48.86H83.7
		v-48.86c0-0.91-0.74-1.64-1.64-1.64H48.03c-0.91,0-1.64,0.74-1.64,1.64v48.86H39.7v-49.89c0-0.91-0.74-1.64-1.64-1.64H27.21
		c-0.91,0-1.64,0.74-1.64,1.64v49.89v1.14v6.05c0,0.91,0.74,1.64,1.64,1.64h146.11c0.91,0,1.64-0.74,1.64-1.64v-6.05v-1.14v-49.89
		c0-0.91-0.74-1.64-1.64-1.64h-10.85C161.57,108.42,160.83,109.15,160.83,110.06z M145.56,129.77L145.56,129.77
		c0.63,0.63,0.62,1.65-0.01,2.28L125.41,152c-0.63,0.63-1.65,0.62-2.28-0.01l0,0c-0.63-0.63-0.62-1.65,0.01-2.28l20.14-19.95
		C143.91,129.14,144.94,129.14,145.56,129.77z M138.16,115.59L138.16,115.59c0.63,0.63,0.64,1.65,0.01,2.28l-34.48,34.82
		c-0.63,0.63-1.65,0.64-2.28,0.01l0,0c-0.63-0.63-0.64-1.65-0.01-2.28l34.48-34.82C136.5,114.96,137.52,114.96,138.16,115.59z
		 M99.15,133.9l19.35-19.1c0.63-0.63,1.66-0.62,2.28,0.02c0.63,0.63,0.62,1.66-0.02,2.28l-19.35,19.1
		c-0.63,0.63-1.66,0.62-2.28-0.02C98.51,135.55,98.51,134.53,99.15,133.9z M71.44,126.63c0-1.75,1.42-3.17,3.17-3.17
		s3.17,1.42,3.17,3.17c0,1.13-0.59,2.12-1.48,2.68v10.89c0.89,0.56,1.48,1.55,1.48,2.68c0,1.75-1.42,3.17-3.17,3.17
		s-3.17-1.42-3.17-3.17c0-1.1,0.56-2.07,1.42-2.64v-10.97C72,128.7,71.44,127.73,71.44,126.63z"/>
</g>
</svg>
