<?xml version="1.0" encoding="utf-8"?>
<!-- Generator: Adobe Illustrator 24.1.0, SVG Export Plug-In . SVG Version: 6.00 Build 0)  -->
<svg version="1.1" id="Layer_1" xmlns="http://www.w3.org/2000/svg" xmlns:xlink="http://www.w3.org/1999/xlink" x="0px" y="0px"
	 viewBox="0 0 200 200" style="enable-background:new 0 0 200 200;" xml:space="preserve">
<style type="text/css">
	.st0{fill:#FFFFFF;}
	.st1{fill:#428CCB;}
	.st2{fill:#FFFFFF;stroke:#FFFFFF;stroke-miterlimit:10;}
	.st3{fill:none;stroke:#F6F6F6;stroke-miterlimit:10;}
	.st4{fill:none;stroke:#FFFFFF;stroke-width:5;stroke-miterlimit:10;}
	.st5{fill:none;stroke:#FFFFFF;stroke-width:3;stroke-miterlimit:10;}
	.st6{fill:#F6F6F6;}
	.st7{fill:none;stroke:#428CCB;stroke-width:2;stroke-miterlimit:10;}
	.st8{fill:#F49823;}
	.st9{fill:none;stroke:#428CCB;stroke-miterlimit:10;}
	.st10{fill:none;stroke:#FFFFFF;stroke-width:6;stroke-miterlimit:10;}
	.st11{fill:none;}
	.st12{fill:#FEFEFE;}
	.st13{fill:#656565;}
	.st14{fill:#F8B81E;}
	.st15{fill:none;stroke:#000000;stroke-miterlimit:10;}
</style>
<g>
	<path class="st0" d="M17.68,71.32L99.39,45.2c0.14-0.04,0.28-0.04,0.42,0l82.51,26.08c0.65,0.2,0.64,1.12,0,1.32l-82.03,25.87
		c-0.13,0.04-0.27,0.04-0.4,0.01L51.98,84.77c-0.18-0.05-0.37,0-0.49,0.15c-1.27,1.5-8.09,10.16-6.72,20.95
		c0,0,8.72,6.86-0.02,14.84l3.09,30.57c0.19,1.91-1.3,3.56-3.22,3.56H33.73c-1.96,0-3.47-1.73-3.21-3.67l4.12-30.36
		c0,0-8.64-7.55,0.44-15.18c0,0,0.36-15.78,6.75-23.44c0.21-0.26,0.12-0.64-0.19-0.75l-23.99-8.81
		C17.04,72.4,17.05,71.52,17.68,71.32z"/>
	<path class="st0" d="M54.44,95.66l45.64,14.02l44.48-14.02v24.79c0,1.97-0.83,3.84-2.29,5.15c-4.1,3.66-14.97,9.85-42.19,11.06
		c0,0-35.94-0.41-44.42-12.4c-0.81-1.15-1.23-2.54-1.23-3.95V95.66z"/>
</g>
</svg>
