<?xml version="1.0" encoding="utf-8"?>
<!-- Generator: Adobe Illustrator 24.1.0, SVG Export Plug-In . SVG Version: 6.00 Build 0)  -->
<svg version="1.1" id="Layer_1" xmlns="http://www.w3.org/2000/svg" xmlns:xlink="http://www.w3.org/1999/xlink" x="0px" y="0px"
	 viewBox="0 0 200 200" style="enable-background:new 0 0 200 200;" xml:space="preserve">
<style type="text/css">
	.st0{fill:#FFFFFF;}
	.st1{fill:#428CCB;}
	.st2{fill:#FFFFFF;stroke:#FFFFFF;stroke-miterlimit:10;}
	.st3{fill:none;stroke:#F6F6F6;stroke-miterlimit:10;}
	.st4{fill:none;stroke:#FFFFFF;stroke-width:5;stroke-miterlimit:10;}
	.st5{fill:none;stroke:#FFFFFF;stroke-width:3;stroke-miterlimit:10;}
	.st6{fill:#F6F6F6;}
	.st7{fill:none;stroke:#428CCB;stroke-width:2;stroke-miterlimit:10;}
	.st8{fill:#F49823;}
	.st9{fill:none;stroke:#428CCB;stroke-miterlimit:10;}
	.st10{fill:none;stroke:#FFFFFF;stroke-width:6;stroke-miterlimit:10;}
	.st11{fill:none;}
	.st12{fill:#FEFEFE;}
	.st13{fill:#656565;}
	.st14{fill:#F8B81E;}
	.st15{fill:none;stroke:#000000;stroke-miterlimit:10;}
	.st16{fill:none;stroke:#FFFFFF;stroke-miterlimit:10;}
	.st17{fill:none;stroke:#FFFFFF;stroke-width:2;stroke-miterlimit:10;}
	.st18{fill:none;stroke:#000000;stroke-width:3;stroke-miterlimit:10;}
</style>
<g>
	<path class="st0" d="M33.38,32.09h19.67c0.59,0,1.14,0.34,1.4,0.87L60.85,46h100.91c4.88,0,7.97,5.23,5.62,9.5l-24.55,44.68
		c-2.31,4.2-6.72,6.81-11.51,6.81H81.59c-0.83,0-1.59,0.46-1.98,1.19L74,118.76c-0.39,0.73,0.14,1.61,0.97,1.61h77.33
		c1.13,0,2.04,0.91,2.04,2.04v9.83c0,1.13-0.91,2.04-2.04,2.04h-79c-10.64,0-17.33-11.47-12.09-20.74l8.28-14.64
		c0.45-0.8,0.48-1.76,0.09-2.59L45.8,46.46c-0.29-0.61-0.9-0.99-1.57-0.99H33.38c-0.86,0-1.56-0.7-1.56-1.56V33.65
		C31.82,32.79,32.52,32.09,33.38,32.09z"/>
	<circle class="st0" cx="73.01" cy="154.48" r="13.43"/>
	<circle class="st0" cx="140.94" cy="154.48" r="13.43"/>
</g>
</svg>
