<?xml version="1.0" encoding="utf-8"?>
<!-- Generator: Adobe Illustrator 24.1.0, SVG Export Plug-In . SVG Version: 6.00 Build 0)  -->
<svg version="1.1" id="Layer_1" xmlns="http://www.w3.org/2000/svg" xmlns:xlink="http://www.w3.org/1999/xlink" x="0px" y="0px"
	 viewBox="0 0 200 200" style="enable-background:new 0 0 200 200;" xml:space="preserve">
<style type="text/css">
	.st0{fill:#FFFFFF;}
	.st1{fill:#428CCB;}
	.st2{fill:#FFFFFF;stroke:#FFFFFF;stroke-miterlimit:10;}
	.st3{fill:none;stroke:#F6F6F6;stroke-miterlimit:10;}
	.st4{fill:none;stroke:#FFFFFF;stroke-width:5;stroke-miterlimit:10;}
	.st5{fill:none;stroke:#FFFFFF;stroke-width:3;stroke-miterlimit:10;}
	.st6{fill:#F6F6F6;}
	.st7{fill:none;stroke:#428CCB;stroke-width:2;stroke-miterlimit:10;}
	.st8{fill:#F49823;}
	.st9{fill:none;stroke:#428CCB;stroke-miterlimit:10;}
	.st10{fill:none;stroke:#FFFFFF;stroke-width:6;stroke-miterlimit:10;}
	.st11{fill:none;}
	.st12{fill:#FEFEFE;}
	.st13{fill:#656565;}
	.st14{fill:#F8B81E;}
	.st15{fill:none;stroke:#000000;stroke-miterlimit:10;}
	.st16{clip-path:url(#SVGID_2_);}
	.st17{clip-path:url(#SVGID_4_);}
	.st18{fill:none;stroke:#FFFFFF;stroke-miterlimit:10;}
	.st19{fill:none;stroke:#FFFFFF;stroke-width:2;stroke-miterlimit:10;}
</style>
<g>
	<g>
		<g>
			<path class="st0" d="M104.5,31.38l-2.48,9.39l13.83,20.22l24.78,9.78l12.91-13.83C153.54,56.95,138.41,34.25,104.5,31.38z"/>
		</g>
		<g>
			<path class="st0" d="M68.24,47.17l29.69-7.17l2.91-8.61c0,0-24.13-0.26-37.56,10.56L68.24,47.17z"/>
		</g>
		<g>
			<path class="st0" d="M59.37,44.3l6.65,6.78l-0.78,25.69L44.5,93.73l-12.52-6.52C31.98,87.21,34.98,61.64,59.37,44.3z"/>
		</g>
		<g>
			<polygon class="st0" points="47.37,96.34 67.46,80.16 94.98,86.56 101.37,114.6 82.98,135.2 57.81,127.64 			"/>
		</g>
		<g>
			<polygon class="st0" points="98.76,84.86 116.63,66.34 139.71,74.42 149.5,102.34 130.58,121.77 105.67,113.94 			"/>
		</g>
		<g>
			<path class="st0" d="M133.98,122.55l18-17.74l16.04,4.04c0,0-3.26,29.48-26.48,45.39l-8.74-6L133.98,122.55z"/>
		</g>
		<g>
			<path class="st0" d="M97.93,159.07l30.96-8.74l9.26,6c0,0-15.59,14.48-45.29,12L97.93,159.07z"/>
		</g>
		<g>
			<path class="st0" d="M55.33,130.38l27.65,8.61l12,19.17l-6,9.78c0,0-26.22-1.96-44.34-25.69L55.33,130.38z"/>
		</g>
	</g>
	<g>
		<path class="st0" d="M100,178.1c-20.86,0-40.47-8.12-55.22-22.87C30.03,140.47,21.9,120.86,21.9,100s8.12-40.47,22.87-55.22
			C59.53,30.03,79.14,21.9,100,21.9s40.47,8.12,55.22,22.87C169.97,59.53,178.1,79.14,178.1,100s-8.12,40.47-22.87,55.22
			C140.47,169.97,120.86,178.1,100,178.1z M100,24.63c-41.56,0-75.37,33.81-75.37,75.37s33.81,75.37,75.37,75.37
			s75.37-33.81,75.37-75.37S141.56,24.63,100,24.63z"/>
	</g>
</g>
</svg>
