<?xml version="1.0" encoding="utf-8"?>
<!-- Generator: Adobe Illustrator 24.1.0, SVG Export Plug-In . SVG Version: 6.00 Build 0)  -->
<svg version="1.1" id="Layer_1" xmlns="http://www.w3.org/2000/svg" xmlns:xlink="http://www.w3.org/1999/xlink" x="0px" y="0px"
	 viewBox="0 0 200 200" style="enable-background:new 0 0 200 200;" xml:space="preserve">
<style type="text/css">
	.st0{fill:#FFFFFF;}
	.st1{fill:#428CCB;}
	.st2{fill:#FFFFFF;stroke:#FFFFFF;stroke-miterlimit:10;}
	.st3{fill:none;stroke:#F6F6F6;stroke-miterlimit:10;}
	.st4{fill:none;stroke:#FFFFFF;stroke-width:5;stroke-miterlimit:10;}
	.st5{fill:none;stroke:#FFFFFF;stroke-width:3;stroke-miterlimit:10;}
	.st6{fill:#F6F6F6;}
	.st7{fill:none;stroke:#428CCB;stroke-width:2;stroke-miterlimit:10;}
	.st8{fill:#F49823;}
	.st9{fill:none;stroke:#428CCB;stroke-miterlimit:10;}
	.st10{fill:none;stroke:#FFFFFF;stroke-width:6;stroke-miterlimit:10;}
	.st11{fill:none;}
	.st12{fill:#FEFEFE;}
	.st13{fill:#656565;}
	.st14{fill:#F8B81E;}
	.st15{fill:none;stroke:#000000;stroke-miterlimit:10;}
</style>
<path class="st0" d="M176.86,100c0,42.45-34.41,76.86-76.86,76.86S23.14,142.45,23.14,100S57.55,23.14,100,23.14
	S176.86,57.55,176.86,100z M154.75,88.28l0.07-0.1c2.21-3.1,1.34-7.44-1.91-9.42c-9.95-6.07-21.04-10.43-33.07-12.98
	c-11.43-2.43-23.72-3.23-36.53-2.38c-13.42,0.89-24.52,3.38-31.2,5.22c-3.71,1.02-5.76,4.99-4.44,8.6l0.05,0.12
	c1.17,3.21,4.62,4.99,7.92,4.08c14.93-4.07,52.42-9.2,90.29,8.63C149.07,91.53,152.74,91.1,154.75,88.28z M144.36,112.87
	c1.9-2.57,1.22-6.2-1.47-7.94c-17.73-11.49-38.73-16.72-61.1-15.17c-11.29,0.78-20.48,3.1-26.01,4.83
	c-3.12,0.97-4.71,4.42-3.44,7.43l0,0.01c1.11,2.62,4.02,3.98,6.73,3.13c4.95-1.54,12.82-2.85,23.22-3.53
	c20.12-1.32,38.7,4.48,54.65,12.61C139.53,115.56,142.63,115.21,144.36,112.87L144.36,112.87z M134.97,133.83
	c1.61-1.99,1.19-4.92-0.91-6.38c-6.84-4.72-15.43-8.12-24.28-10.13c-8.29-1.89-17.41-2.57-27.11-2.01
	c-10.69,0.61-18.92,2.21-24,3.55c-2.46,0.65-3.85,3.24-3.04,5.64l0.03,0.08c0.74,2.18,3.03,3.43,5.26,2.84
	c4.7-1.23,12.48-2.74,22.48-3.29c12.75-0.7,31.16,0.66,45.59,10.58c1.9,1.3,4.47,0.96,5.92-0.83L134.97,133.83z"/>
</svg>
