<?xml version="1.0" encoding="utf-8"?>
<!-- Generator: Adobe Illustrator 24.1.0, SVG Export Plug-In . SVG Version: 6.00 Build 0)  -->
<svg version="1.1" id="Layer_1" xmlns="http://www.w3.org/2000/svg" xmlns:xlink="http://www.w3.org/1999/xlink" x="0px" y="0px"
	 viewBox="0 0 200 200" style="enable-background:new 0 0 200 200;" xml:space="preserve">
<style type="text/css">
	.st0{fill:#FFFFFF;}
</style>
<g>
	<path class="st0" d="M71.23,87.55h24.75c0.64,0,1.15,0.52,1.15,1.15v64.92c0,0.64-0.52,1.15-1.15,1.15H52.16
		c-0.77,0-1.32-0.74-1.11-1.48l19.08-64.92C70.27,87.89,70.72,87.55,71.23,87.55z"/>
	<path class="st0" d="M177.42,68.81H22.58c-1.41,0-2.55,1.14-2.55,2.55v9.24c0,1.41,1.14,2.55,2.55,2.55h6.55l-5.86,22.01
		c-0.85,3.18,1.55,6.29,4.83,6.29h22.83c3.25,0,5.63-3.05,4.86-6.2l-5.15-20.89c-0.11-0.43-0.28-0.83-0.49-1.2h100.79l-5.86,22.01
		c-0.85,3.18,1.55,6.29,4.83,6.29h22.83c3.25,0,5.63-3.05,4.86-6.2l-5.15-20.89c-0.11-0.43-0.28-0.83-0.49-1.2h5.47
		c1.41,0,2.55-1.14,2.55-2.55v-9.24C179.97,69.95,178.83,68.81,177.42,68.81z"/>
	<path class="st0" d="M96.3,46.37v17.38c0,0.64-0.52,1.15-1.15,1.15H77.72c-0.78,0-1.34-0.76-1.1-1.51l5.61-17.38
		c0.15-0.48,0.6-0.8,1.1-0.8h11.82C95.78,45.22,96.3,45.73,96.3,46.37z"/>
	<path class="st0" d="M127.92,87.55h-24.75c-0.64,0-1.15,0.52-1.15,1.15v64.92c0,0.64,0.52,1.15,1.15,1.15H147
		c0.77,0,1.32-0.74,1.11-1.48l-19.08-64.92C128.88,87.89,128.43,87.55,127.92,87.55z"/>
	<path class="st0" d="M102.85,46.37v17.38c0,0.64,0.52,1.15,1.15,1.15h17.42c0.78,0,1.34-0.76,1.1-1.51l-5.61-17.38
		c-0.15-0.48-0.6-0.8-1.1-0.8h-11.82C103.37,45.22,102.85,45.73,102.85,46.37z"/>
</g>
</svg>
