<?xml version="1.0" encoding="utf-8"?>
<!-- Generator: Adobe Illustrator 24.1.0, SVG Export Plug-In . SVG Version: 6.00 Build 0)  -->
<svg version="1.1" id="Layer_1" xmlns="http://www.w3.org/2000/svg" xmlns:xlink="http://www.w3.org/1999/xlink" x="0px" y="0px"
	 viewBox="0 0 200 200" style="enable-background:new 0 0 200 200;" xml:space="preserve">
<style type="text/css">
	.st0{fill:#FFFFFF;}
</style>
<g>
	<path class="st0" d="M135.6,140.13H62.97c-7.52,0-13.54-6.23-13.28-13.74l3.66-91.47c0.26-7.54,6.45-13.52,14-13.52h63.98
		c7.52,0,13.7,5.95,14,13.46l3.55,91.48C149.17,133.87,143.14,140.13,135.6,140.13z M56.95,21.39 M124.78,109.62
		c-5.2,0-9.42,4.22-9.42,9.42c0,5.2,4.22,9.42,9.42,9.42c5.2,0,9.42-4.22,9.42-9.42C134.2,113.83,129.98,109.62,124.78,109.62z
		 M75.07,109.62c-5.2,0-9.42,4.22-9.42,9.42c0,5.2,4.22,9.42,9.42,9.42s9.42-4.22,9.42-9.42C84.49,113.83,80.27,109.62,75.07,109.62
		z M99.89,25.92c-3.71,0-6.73,3.01-6.73,6.73s3.01,6.73,6.73,6.73c3.71,0,6.73-3.01,6.73-6.73S103.61,25.92,99.89,25.92z
		 M132.97,89.98l-0.68-32.54c-0.09-4.51-3.78-8.12-8.29-8.12H75.78c-4.51,0-8.2,3.61-8.29,8.12l-0.68,32.54
		c-0.1,4.65,3.64,8.47,8.29,8.47h49.58C129.33,98.45,133.07,94.63,132.97,89.98z"/>
	<path class="st0" d="M158.34,175.45l-23.52-29.08c-0.3-0.37-0.75-0.59-1.23-0.59h-4.39c-1.52,0-2.45,1.67-1.65,2.97l0.11,0.18
		H72.33l0.11-0.18c0.8-1.29-0.13-2.97-1.65-2.97h-4.39c-0.48,0-0.93,0.22-1.23,0.59l-23.52,29.08c-1.03,1.27-0.12,3.16,1.51,3.16
		h9.85c0.55,0,1.05-0.28,1.34-0.75l2.17-3.49h86.95l2.17,3.49c0.29,0.46,0.8,0.75,1.34,0.75h9.85
		C158.46,178.61,159.37,176.71,158.34,175.45z M131,154.29l2.22,3.58H66.77l2.22-3.58H131z M59.86,169l3.57-5.75h73.13l3.57,5.75
		H59.86z"/>
</g>
</svg>
