<?xml version="1.0" encoding="utf-8"?>
<!-- Generator: Adobe Illustrator 24.1.0, SVG Export Plug-In . SVG Version: 6.00 Build 0)  -->
<svg version="1.1" id="Layer_1" xmlns="http://www.w3.org/2000/svg" xmlns:xlink="http://www.w3.org/1999/xlink" x="0px" y="0px"
	 viewBox="0 0 200 200" style="enable-background:new 0 0 200 200;" xml:space="preserve">
<style type="text/css">
	.st0{fill:#FFFFFF;}
</style>
<g>
	<path class="st0" d="M87.76,63.71h-9.05V42.95h2.52c2.08,0,3.77-1.69,3.77-3.77v-1.03c0-2.08-1.69-3.77-3.77-3.77H53.89
		c-2.08,0-3.77,1.69-3.77,3.77v1.03c0,2.08,1.69,3.77,3.77,3.77h2.63v20.76h-3.5v-0.71c0-1.07-0.36-2.06-1.02-2.79
		c-0.75-0.83-2.18-1.72-4.7-1.2l-0.06,0.01c-0.02,0.01-2.41,0.63-3.86-0.52c-0.15-0.12-0.3-0.28-0.46-0.5l-0.71-0.96
		c0.34-0.16,0.67-0.31,0.97-0.43c0.56-0.22,0.98-0.68,1.17-1.25l1.69-4.04c0.15-0.47,0.13-0.99-0.08-1.44l-5.63-12.65
		c-0.46-1.02-1.66-1.48-2.68-1.01l-9.07,4.13c-1,0.45-1.45,1.62-1.02,2.62l5.05,11.84c0.19,0.44,0.53,0.81,0.97,1.02l4.58,2.25
		c0.5,0.25,1.09,0.27,1.61,0.07c0.31-0.12,0.65-0.27,0.99-0.43l0.89,1.2c0.25,0.34,0.49,0.59,0.75,0.8c2.01,1.59,4.87,0.9,5.22,0.8
		c1.43-0.29,2.51-0.04,3.2,0.72c0.4,0.45,0.62,1.07,0.62,1.74v0.71h-3.02c-8.12,0-14.7,6.58-14.7,14.7v56.3
		c0,6.34,4.18,11.7,9.93,13.49v3.62c0,3.17,2.57,5.74,5.74,5.74h0c3.17,0,5.74-2.57,5.74-5.74v-2.99h10.57
		c1.73,0,3.13-1.4,3.13-3.13v-41c0-7.61,6.17-13.78,13.78-13.78h16.19c1.62,0,2.93-1.31,2.93-2.93V77.71
		C101.76,69.98,95.49,63.71,87.76,63.71z M39.55,54.78c0.18-0.41,0.65-0.59,1.05-0.41c0.41,0.18,0.59,0.65,0.41,1.05
		c-0.18,0.41-0.65,0.59-1.05,0.41C39.56,55.66,39.37,55.18,39.55,54.78z M61.21,63.71V42.95h12.81v20.76H61.21z"/>
	<path class="st0" d="M163.86,97.64h-16.38c0.25-0.28,0.46-0.6,0.61-0.94c0.47-1.02,0.71-2.68-0.76-4.79l-0.03-0.05
		c-0.02-0.02-1.54-1.96-1.06-3.75c0.05-0.18,0.14-0.38,0.28-0.63l0.6-1.03c0.28,0.25,0.55,0.49,0.78,0.72
		c0.42,0.42,1.01,0.63,1.61,0.58l4.38-0.05c0.5-0.05,0.96-0.28,1.29-0.64l9.37-10.19c0.76-0.82,0.7-2.11-0.13-2.86l-7.39-6.68
		c-0.81-0.73-2.06-0.69-2.81,0.11l-8.86,9.33c-0.33,0.35-0.53,0.81-0.55,1.29l-0.25,5.1c-0.03,0.56,0.18,1.11,0.57,1.51
		c0.23,0.24,0.5,0.49,0.79,0.74l-0.75,1.29c-0.21,0.37-0.35,0.69-0.44,1.01c-0.66,2.47,1.11,4.83,1.34,5.11
		c0.83,1.2,1.04,2.29,0.61,3.23c-0.25,0.54-0.73,0.99-1.35,1.26l-0.76,0.33h-2.54v-4.56c0-6.9-5.62-12.52-12.52-12.52h-11.48
		c-6.9,0-12.52,5.62-12.52,12.52v4.56H84.43c-4.82,0-8.73,3.91-8.73,8.73v41.68c0,4.82,3.91,8.73,8.73,8.73h0.92v3.1
		c0,3.17,2.57,5.74,5.74,5.74h0c3.17,0,5.74-2.57,5.74-5.74v-3.1h53.78v3.1c0,3.17,2.57,5.74,5.74,5.74s5.74-2.57,5.74-5.74v-3.1
		h1.75c4.82,0,8.73-3.91,8.73-8.73v-41.68C172.59,101.55,168.68,97.64,163.86,97.64z M148.13,83.12c0.44,0,0.8,0.36,0.8,0.8
		c0,0.44-0.36,0.8-0.8,0.8c-0.44,0-0.8-0.36-0.8-0.8C147.32,83.48,147.68,83.12,148.13,83.12z M114.49,93.08
		c0-1.94,1.58-3.52,3.52-3.52h11.48c1.94,0,3.52,1.58,3.52,3.52v4.56h-18.52V93.08z"/>
</g>
</svg>
