<?xml version="1.0" encoding="utf-8"?>
<!-- Generator: Adobe Illustrator 24.1.0, SVG Export Plug-In . SVG Version: 6.00 Build 0)  -->
<svg version="1.1" id="Layer_1" xmlns="http://www.w3.org/2000/svg" xmlns:xlink="http://www.w3.org/1999/xlink" x="0px" y="0px"
	 viewBox="0 0 200 200" style="enable-background:new 0 0 200 200;" xml:space="preserve">
<style type="text/css">
	.st0{fill:#FFFFFF;}
	.st1{fill:#428CCB;}
	.st2{fill:#FFFFFF;stroke:#FFFFFF;stroke-miterlimit:10;}
	.st3{fill:none;stroke:#F6F6F6;stroke-miterlimit:10;}
	.st4{fill:none;stroke:#FFFFFF;stroke-width:5;stroke-miterlimit:10;}
	.st5{fill:none;stroke:#FFFFFF;stroke-width:3;stroke-miterlimit:10;}
	.st6{fill:#F6F6F6;}
	.st7{fill:none;stroke:#428CCB;stroke-width:2;stroke-miterlimit:10;}
	.st8{fill:#F49823;}
	.st9{fill:none;stroke:#428CCB;stroke-miterlimit:10;}
	.st10{fill:none;stroke:#FFFFFF;stroke-width:6;stroke-miterlimit:10;}
	.st11{fill:none;}
	.st12{fill:#FEFEFE;}
	.st13{fill:#656565;}
	.st14{fill:#F8B81E;}
	.st15{fill:none;stroke:#000000;stroke-miterlimit:10;}
	.st16{fill:none;stroke:#FFFFFF;stroke-miterlimit:10;}
	.st17{fill:none;stroke:#FFFFFF;stroke-width:2;stroke-miterlimit:10;}
	.st18{fill:none;stroke:#000000;stroke-width:3;stroke-miterlimit:10;}
</style>
<g>
	<path class="st0" d="M165.31,55.55v31.02c0,2.38-1.93,4.31-4.31,4.31h-29.45v0c0,2.63-2.14,4.77-4.77,4.77h-20.55
		c-2.63,0-4.77-2.14-4.77-4.77v0H85.24c-5.02,0-9.09,4.07-9.09,9.09v11.46h0.37c2.63,0,4.77,2.14,4.77,4.77v2.2
		c0,2.63-2.14,4.77-4.77,4.77H39.46c-2.63,0-4.77-2.14-4.77-4.77v-2.2c0-2.63,2.14-4.77,4.77-4.77h0V89.77
		c0-21.28,17.25-38.53,38.53-38.53H100v-0.84c0-1.36,1.1-2.46,2.46-2.46h7.08v-6.6H97.8c-4.86,0-8.81-3.94-8.81-8.81v0
		c0-4.86,3.94-8.81,8.81-8.81l35.96,0c4.86,0,8.81,3.94,8.81,8.81v0c0,4.86-3.94,8.81-8.81,8.81h-11.37v7.34h5.98
		c1.36,0,2.46,1.1,2.46,2.46v0l30.19,0.09C163.39,51.24,165.31,53.17,165.31,55.55z"/>
	<path class="st0" d="M55.85,136.76l-9.68,13.82c-2.67,3.82-4.08,8.45-3.61,13.09c0.57,5.61,3.67,11.82,14.43,12.6
		c0,0,16.06,0.49,17.11-12.39c0.33-3.98-0.88-7.93-3.03-11.29l-10.09-15.72C59.79,135.02,57.11,134.96,55.85,136.76z"/>
</g>
</svg>
