<?xml version="1.0" encoding="utf-8"?>
<!-- Generator: Adobe Illustrator 24.1.0, SVG Export Plug-In . SVG Version: 6.00 Build 0)  -->
<svg version="1.1" id="Layer_1" xmlns="http://www.w3.org/2000/svg" xmlns:xlink="http://www.w3.org/1999/xlink" x="0px" y="0px"
	 viewBox="0 0 200 200" style="enable-background:new 0 0 200 200;" xml:space="preserve">
<style type="text/css">
	.st0{fill:#FFFFFF;}
	.st1{fill:#428CCB;}
	.st2{fill:#FFFFFF;stroke:#FFFFFF;stroke-miterlimit:10;}
	.st3{fill:none;stroke:#F6F6F6;stroke-miterlimit:10;}
	.st4{fill:none;stroke:#FFFFFF;stroke-width:5;stroke-miterlimit:10;}
	.st5{fill:none;stroke:#FFFFFF;stroke-width:3;stroke-miterlimit:10;}
	.st6{fill:#F6F6F6;}
	.st7{fill:none;stroke:#428CCB;stroke-width:2;stroke-miterlimit:10;}
	.st8{fill:#F49823;}
	.st9{fill:none;stroke:#428CCB;stroke-miterlimit:10;}
	.st10{fill:none;stroke:#FFFFFF;stroke-width:6;stroke-miterlimit:10;}
	.st11{fill:none;}
	.st12{fill:#FEFEFE;}
	.st13{fill:#656565;}
	.st14{fill:#F8B81E;}
	.st15{fill:none;stroke:#000000;stroke-miterlimit:10;}
</style>
<g>
	<path class="st0" d="M151.71,45.17c0,0,47.91,44.03,7.79,100.88c0,0,8.25-20.88-38.98-80.5C120.51,65.55,140.71,44.96,151.71,45.17
		z"/>
	<path class="st0" d="M48.29,45.33c0,0-47.91,44.03-7.79,100.88c0,0-8.25-20.88,38.98-80.5C79.49,65.72,59.29,45.13,48.29,45.33z"/>
	<path class="st0" d="M99.81,47.08c0,0,19.7-13.37,39.23-11.28c0,0-34.64-25.57-78.46,0.35C60.57,36.15,72.67,31.62,99.81,47.08z"/>
	<path class="st0" d="M99.81,84.78c0,0-63.25,50.25-49.11,71.8c13.48,20.54,65.11,27.87,94.88,3.79c4.64-3.75,6.71-9.9,5.23-15.68
		C148.06,133.96,136.79,115.12,99.81,84.78z"/>
</g>
</svg>
