<svg id="Layer_1" data-name="Layer 1" xmlns="http://www.w3.org/2000/svg" viewBox="0 0 200 200"><defs><style>.cls-1{fill:#fff;}</style></defs><path class="cls-1" d="M153,45.09c6.35.28,22.48,2.45,25.06,17,.14.78.28,1.57.45,2.35,1.19,5.5,5.53,28.66,1.86,58.8-.27,2.2-.43,4.4-.54,6.61-.34,6.46-3.17,22.76-23.15,24.37,0,0-59.21,5.44-115.4,0,0,0-19.23-.8-21.55-20.94,0,0-2.82-35.83-.78-56.3.31-3.18.56-6.35.85-9.52.63-6.86,4.41-20.78,24.5-22.41,0,0,65.22-3.43,100.64-.52C147.62,44.75,150.3,45,153,45.09ZM84.58,74.85V124.6L124.89,100Z"/></svg>